<?xml version="1.0" encoding="UTF-8" standalone="no"?>
<svg
   xmlns:dc="http://purl.org/dc/elements/1.1/"
   xmlns:cc="http://creativecommons.org/ns#"
   xmlns:rdf="http://www.w3.org/1999/02/22-rdf-syntax-ns#"
   xmlns:svg="http://www.w3.org/2000/svg"
   xmlns="http://www.w3.org/2000/svg"
   xmlns:sodipodi="http://sodipodi.sourceforge.net/DTD/sodipodi-0.dtd"
   xmlns:inkscape="http://www.inkscape.org/namespaces/inkscape"
   version="1.1"
   id="svg2"
   viewBox="0 0 1860.2362 354.33071"
   height="100mm"
   width="525mm"
   inkscape:version="0.91 r13725"
   sodipodi:docname="college.svg">
  <sodipodi:namedview
     pagecolor="#ffffff"
     bordercolor="#666666"
     borderopacity="1"
     objecttolerance="10"
     gridtolerance="10"
     guidetolerance="10"
     inkscape:pageopacity="0"
     inkscape:pageshadow="2"
     inkscape:window-width="1280"
     inkscape:window-height="962"
     id="namedview3366"
     showgrid="false"
     inkscape:zoom="0.48959026"
     inkscape:cx="1199.4229"
     inkscape:cy="-291.85388"
     inkscape:window-x="-8"
     inkscape:window-y="-8"
     inkscape:window-maximized="1"
     inkscape:current-layer="text4140" />
  <defs
     id="defs4" />
  <metadata
     id="metadata7">
    <rdf:RDF>
      <cc:Work
         rdf:about="">
        <dc:format>image/svg+xml</dc:format>
        <dc:type
           rdf:resource="http://purl.org/dc/dcmitype/StillImage" />
        <dc:title />
      </cc:Work>
    </rdf:RDF>
  </metadata>
  <g
     transform="translate(0,-698.03145)"
     id="layer1">
    <g
       id="text4136"
       style="font-style:normal;font-weight:normal;font-size:40px;line-height:125%;font-family:sans-serif;letter-spacing:0px;word-spacing:0px;fill:#000000;fill-opacity:1;stroke:none;stroke-width:1px;stroke-linecap:butt;stroke-linejoin:miter;stroke-opacity:1" />
    <g
       id="text4140"
       style="font-style:normal;font-variant:normal;font-weight:normal;font-stretch:normal;font-size:40px;line-height:125%;font-family:Arial;-inkscape-font-specification:Arial;letter-spacing:0px;word-spacing:0px;fill:#000000;fill-opacity:1;stroke:none;stroke-width:1px;stroke-linecap:butt;stroke-linejoin:miter;stroke-opacity:1">
      <circle
         r="173.62207"
         cy="875.1969"
         cx="177.16539"
         id="path4157"
         style="fill:#4caf50;fill-opacity:1;stroke:#000000;stroke-width:7.08661509;stroke-miterlimit:4;stroke-dasharray:none;stroke-opacity:1" />
      <path
         id="path4194-9"
         d="m 287.79348,952.97052 -54.55082,10.60533 -59.19042,-31.95752 -3.5579,-111.92462 -49.90609,-28.29662 -55.351242,3.27112 -23.5905,23.5905 -36.5312523,36.53126 C -10.368466,918.04418 44.341927,1054.0128 192.43269,1048.2081 Z"
         style="font-style:normal;font-variant:normal;font-weight:normal;font-stretch:normal;font-size:40px;line-height:125%;font-family:Arial;-inkscape-font-specification:Arial;letter-spacing:0px;word-spacing:0px;fill:#000000;fill-opacity:0.19607843;fill-rule:evenodd;stroke:none;stroke-width:3.54330754;stroke-linecap:butt;stroke-linejoin:miter;stroke-miterlimit:4;stroke-dasharray:none;stroke-opacity:1" />
      <path
         id="path4218"
         d="M 307.02405,832.64528 194.02857,945.64078 C 151.29695,877.36184 175.36106,713.37123 293.34204,823.8767"
         style="fill:#000000;fill-opacity:0.19607843;fill-rule:evenodd;stroke:none;stroke-width:1px;stroke-linecap:butt;stroke-linejoin:miter;stroke-opacity:1" />
      <path
         id="path4148"
         d="m 113.28859,777.7559 c -11.90166,0 -22.717661,2.14242 -32.448042,6.42748 -9.730381,4.28499 -17.128713,10.58401 -22.194932,18.8969 -5.066218,8.22721 -7.599298,17.09719 -7.599298,26.60988 0,8.65568 2.050555,16.4972 6.151838,23.52461 4.18163,6.94172 10.494352,12.76928 18.938089,17.48282 6.513746,3.68506 17.892618,7.62733 34.136745,11.82663 16.24413,4.1136 26.73848,7.15595 31.48305,9.12707 7.39833,2.9995 12.70578,6.72742 15.92243,11.18386 3.21664,4.37069 4.82499,9.51269 4.82499,15.42602 0,5.82754 -1.68877,11.22665 -5.06624,16.19725 -3.29703,4.88492 -8.36332,8.74145 -15.1987,11.56956 -6.83541,2.82812 -14.7162,4.24213 -23.64241,4.24213 -10.05202,0 -19.098907,-1.84259 -27.140592,-5.52768 -8.041625,-3.77082 -13.992423,-8.65568 -17.852419,-14.6547 -3.779576,-6.08464 -6.192093,-13.84053 -7.237507,-23.26752 l -22.074248,2.0568 c 0.321766,12.59789 3.538336,23.91031 9.649969,33.93726 6.192102,9.94114 14.67598,17.39699 25.451775,22.36761 10.856197,4.97063 24.285752,7.45594 40.288652,7.45594 12.62536,0 23.96402,-2.44242 34.01611,-7.32738 10.01177,-4.91137 17.68388,-11.72438 23.0634,-20.40092 3.47506,6.08776 7.64463,11.29916 13.49792,15.38751 11.98209,8.22723 27.50246,12.34079 46.56109,12.34079 18.41537,0 33.97599,-5.35622 46.68177,-16.06876 12.7862,-10.79821 21.632,-26.43855 26.53738,-46.92079 l -23.40116,-6.29895 c -3.21662,15.85455 -9.36853,27.80974 -18.45555,35.86548 -9.08702,8.05584 -20.18452,12.08372 -33.29243,12.08372 -10.77578,0 -20.78762,-2.95669 -30.03552,-8.86995 -9.24786,-5.91328 -16.08325,-14.8261 -20.50618,-26.73844 -4.34251,-11.99797 -6.51375,-26.01002 -6.51375,-42.03589 0,-12.42656 1.84959,-24.46737 5.54876,-36.12256 3.69918,-11.74089 10.0923,-21.08218 19.17933,-28.02391 9.16744,-6.94172 20.54637,-10.41255 34.13674,-10.41255 11.82125,0 21.63205,3.12805 29.43244,9.38416 7.80039,6.2561 13.75119,16.24016 17.8524,29.95215 l 23.03956,-5.78625 c -4.74458,-17.39712 -13.14829,-30.89339 -25.21077,-40.49178 -12.0625,-9.59839 -26.93952,-14.3976 -44.63111,-14.3976 -15.60083,0 -29.91496,3.81366 -42.94239,11.44094 -8.27903,4.82252 -15.35126,11.11437 -21.22994,18.84543 -0.63952,-1.2292 -1.21068,-2.48986 -1.94204,-3.67649 -5.38792,-8.74146 -13.10789,-15.34032 -23.15992,-19.79671 -9.97168,-4.54214 -21.51143,-6.81317 -34.61929,-6.81317 z m 0.96501,21.98202 c 13.59037,0 23.84349,3.04237 30.75928,9.12708 6.99623,6.08464 11.09751,15.08323 12.30373,26.99556 l 0,35.69831 c -0.84005,-0.46204 -1.41733,-0.88663 -2.41252,-1.37545 -7.07663,-3.42798 -20.14425,-7.41311 -39.20295,-11.95519 -18.978257,-4.62784 -30.719101,-9.127 -35.222439,-13.49776 -4.583751,-4.37067 -6.875602,-9.94115 -6.875602,-16.71149 0,-7.79867 3.216637,-14.44045 9.649978,-19.92524 6.513743,-5.57047 16.847203,-8.35582 31.000523,-8.35582 z" />
      <path
         id="flowRoot3339"
         transform="translate(0,698.03145)"
         d="M 772.06836 17.716797 L 754.97656 20.65625 L 754.97656 68.992188 C 752.89371 67.644457 749.70816 66.233924 745.41992 64.763672 C 741.25421 63.29342 736.41384 62.558594 730.90039 62.558594 C 724.03922 62.558594 717.91436 63.783955 712.52344 66.234375 C 707.25503 68.684795 702.78305 72.116588 699.10742 76.527344 C 695.43179 80.938099 692.61268 86.205982 690.65234 92.332031 C 688.81453 98.458081 687.89648 105.19562 687.89648 112.54688 C 687.89648 120.2657 688.9997 127.24948 691.20508 133.49805 C 693.53298 139.6241 696.7796 144.83286 700.94531 149.12109 C 705.11103 153.40933 710.13462 156.71702 716.01562 159.04492 C 721.89663 161.37282 728.51202 162.53711 735.86328 162.53711 C 743.82715 162.53711 750.872 161.9855 756.99805 160.88281 C 763.1241 159.78012 768.14769 158.67691 772.06836 157.57422 L 772.06836 17.716797 z M 818.35156 17.716797 L 801.26172 20.65625 L 801.26172 135.33594 C 801.26172 144.40249 803.4662 151.08091 807.87695 155.36914 C 812.28771 159.65738 819.76202 161.92293 830.29883 162.16797 L 832.6875 147.83398 C 829.99204 147.46642 827.72453 147.03696 825.88672 146.54688 C 824.0489 145.93427 822.57925 145.0773 821.47656 143.97461 C 820.37387 142.87192 819.57797 141.40227 819.08789 139.56445 C 818.59781 137.72664 818.35156 135.39806 818.35156 132.58008 L 818.35156 17.716797 z M 1324.1113 17.716797 L 1307.0195 20.65625 L 1307.0195 135.33594 C 1307.0195 144.40249 1309.224 151.08091 1313.6348 155.36914 C 1318.0455 159.65738 1325.5198 161.92293 1336.0566 162.16797 L 1338.4453 147.83398 C 1335.7499 147.46642 1333.4843 147.03696 1331.6465 146.54688 C 1329.8087 145.93427 1328.3371 145.0773 1327.2344 143.97461 C 1326.1317 142.87192 1325.3358 141.40227 1324.8457 139.56445 C 1324.3556 137.72664 1324.1113 135.39806 1324.1113 132.58008 L 1324.1113 17.716797 z M 1374.3633 17.716797 L 1357.2715 20.65625 L 1357.2715 135.33594 C 1357.2715 144.40249 1359.4779 151.08091 1363.8887 155.36914 C 1368.2994 159.65738 1375.7718 161.92293 1386.3086 162.16797 L 1388.6992 147.83398 C 1386.0038 147.46642 1383.7363 147.03696 1381.8984 146.54688 C 1380.0606 145.93427 1378.591 145.0773 1377.4883 143.97461 C 1376.3856 142.87192 1375.5877 141.40227 1375.0977 139.56445 C 1374.6076 137.72664 1374.3633 135.39806 1374.3633 132.58008 L 1374.3633 17.716797 z M 453.24219 30.029297 C 439.8874 30.029297 429.41075 33.153773 421.81445 39.402344 C 414.21815 45.650914 410.41992 54.35059 410.41992 65.5 C 410.41992 70.890924 411.27885 75.485052 412.99414 79.283203 C 414.83196 83.081354 417.28268 86.389048 420.3457 89.207031 C 423.40873 91.902493 427.02179 94.292143 431.1875 96.375 C 435.35321 98.335336 439.76412 100.11231 444.41992 101.70508 C 448.46311 103.17533 452.26134 104.64498 455.81445 106.11523 C 459.49008 107.58549 462.7367 109.36246 465.55469 111.44531 C 468.37267 113.40565 470.5791 115.7953 472.17188 118.61328 C 473.88717 121.30874 474.74414 124.61644 474.74414 128.53711 C 474.74414 141.27929 465.43178 147.65039 446.80859 147.65039 C 438.47717 147.65039 431.43231 146.66932 425.67383 144.70898 C 419.91534 142.74865 415.62853 140.97168 412.81055 139.37891 L 407.48047 154.08203 C 408.8282 154.81716 410.66624 155.73715 412.99414 156.83984 C 415.44456 157.82001 418.32279 158.79913 421.63086 159.7793 C 424.93893 160.63694 428.67608 161.37177 432.8418 161.98438 C 437.13003 162.7195 441.78523 163.08789 446.80859 163.08789 C 461.63363 163.08789 473.0894 160.08556 481.17578 154.08203 C 489.38469 148.0785 493.49023 139.50293 493.49023 128.35352 C 493.49023 122.34999 492.57024 117.26532 490.73242 113.09961 C 488.89461 108.81137 486.26067 105.13529 482.83008 102.07227 C 479.52201 99.009241 475.54056 96.3753 470.88477 94.169922 C 466.35149 91.964544 461.3279 89.758112 455.81445 87.552734 C 451.89378 86.082482 448.28072 84.61283 444.97266 83.142578 C 441.78711 81.672326 438.968 80.080528 436.51758 78.365234 C 434.06716 76.52742 432.16804 74.443133 430.82031 72.115234 C 429.47258 69.787336 428.79883 66.909103 428.79883 63.478516 C 428.79883 60.415491 429.41151 57.78155 430.63672 55.576172 C 431.98445 53.248273 433.76142 51.349158 435.9668 49.878906 C 438.17217 48.408654 440.74504 47.305438 443.68555 46.570312 C 446.62605 45.835187 449.8116 45.466797 453.24219 45.466797 C 459.98084 45.466797 465.86141 46.264649 470.88477 47.857422 C 476.03065 49.327674 479.88995 50.858399 482.46289 52.451172 L 488.16016 37.931641 C 485.21965 35.971305 480.56445 34.196289 474.19336 32.603516 C 467.94479 30.888222 460.96101 30.029297 453.24219 30.029297 z M 1144.8574 30.029297 C 1136.526 30.029297 1128.6852 31.500902 1121.334 34.441406 C 1113.9827 37.38191 1107.5506 41.668722 1102.0371 47.304688 C 1096.5237 52.940653 1092.1128 59.924432 1088.8047 68.255859 C 1085.6191 76.464766 1084.0254 85.899268 1084.0254 96.558594 C 1084.0254 107.21792 1085.434 116.71349 1088.252 125.04492 C 1091.1925 133.25383 1095.298 140.17653 1100.5664 145.8125 C 1105.8348 151.44847 1112.1448 155.73723 1119.4961 158.67773 C 1126.8474 161.61824 1134.9954 163.08789 1143.9395 163.08789 C 1149.0853 163.08789 1153.8627 162.78057 1158.2734 162.16797 C 1162.6842 161.55536 1166.5435 160.82054 1169.8516 159.96289 C 1173.1596 159.10524 1175.9157 158.24827 1178.1211 157.39062 C 1180.3265 156.41046 1181.8591 155.61456 1182.7168 155.00195 L 1178.1211 140.29883 C 1175.4256 141.64656 1171.3831 143.17728 1165.9922 144.89258 C 1160.6013 146.60787 1153.8007 147.4668 1145.5918 147.4668 C 1138.4856 147.4668 1132.2386 146.24144 1126.8477 143.79102 C 1121.5793 141.3406 1117.1683 137.9088 1113.6152 133.49805 C 1110.0621 128.96477 1107.3671 123.57474 1105.5293 117.32617 C 1103.814 111.0776 1102.9551 104.1549 1102.9551 96.558594 C 1102.9551 88.71725 1103.9361 81.672399 1105.8965 75.423828 C 1107.9793 69.052737 1110.9186 63.662709 1114.7168 59.251953 C 1118.5149 54.841197 1123.111 51.470477 1128.502 49.142578 C 1133.8929 46.814679 1139.9567 45.650391 1146.6953 45.650391 C 1149.8809 45.650391 1153.0053 45.957708 1156.0684 46.570312 C 1159.2539 47.060396 1162.1321 47.73415 1164.7051 48.591797 C 1167.4005 49.449444 1169.7902 50.306416 1171.873 51.164062 C 1173.9559 52.021709 1175.5497 52.819562 1176.6523 53.554688 L 1181.7969 38.851562 C 1181.0617 38.361479 1179.7142 37.626652 1177.7539 36.646484 C 1175.7936 35.666316 1173.2207 34.685246 1170.0352 33.705078 C 1166.9721 32.72491 1163.296 31.867938 1159.0078 31.132812 C 1154.8421 30.397687 1150.1258 30.029297 1144.8574 30.029297 z M 529.74023 35.175781 L 512.64844 38.117188 L 512.64844 123.39062 C 512.64844 129.76172 513.13897 135.39799 514.11914 140.29883 C 515.22183 145.07715 517.05987 149.11967 519.63281 152.42773 C 522.20575 155.7358 525.57452 158.2476 529.74023 159.96289 C 534.02847 161.55566 539.42045 162.35352 545.91406 162.35352 C 551.42751 162.35352 556.32895 161.67781 560.61719 160.33008 C 564.90542 159.10487 567.9058 158.06468 569.62109 157.20703 L 566.3125 143.05469 C 565.08729 143.54477 562.88281 144.4037 559.69727 145.62891 C 556.63424 146.7316 552.53065 147.2832 547.38477 147.2832 C 544.44426 147.2832 541.87139 146.91481 539.66602 146.17969 C 537.46064 145.44456 535.6226 144.2192 534.15234 142.50391 C 532.68209 140.66609 531.57888 138.21537 530.84375 135.15234 C 530.10862 131.9668 529.74023 127.98535 529.74023 123.20703 L 529.74023 79.099609 L 565.94531 79.099609 L 565.94531 64.763672 L 529.74023 64.763672 L 529.74023 35.175781 z M 890.10742 62.375 C 884.59398 62.375 879.20395 63.417143 873.93555 65.5 C 868.66714 67.582857 864.00999 70.707333 859.9668 74.873047 C 855.9236 79.038761 852.67698 84.306643 850.22656 90.677734 C 847.77614 96.926305 846.55078 104.27847 846.55078 112.73242 C 846.55078 119.96116 847.47078 126.63762 849.30859 132.76367 C 851.26893 138.7672 854.20823 143.97401 858.12891 148.38477 C 862.04958 152.79552 867.0121 156.28839 873.01562 158.86133 C 879.14167 161.31175 886.3717 162.53711 894.70312 162.53711 C 901.31926 162.53711 907.19982 161.92443 912.3457 160.69922 C 917.61411 159.47401 921.29019 158.30972 923.37305 157.20703 L 920.98242 142.87109 C 918.89957 143.85126 915.77509 144.8934 911.60938 145.99609 C 907.56618 146.97626 902.54454 147.4668 896.54102 147.4668 C 885.88169 147.4668 878.03899 144.89393 873.01562 139.74805 C 867.99226 134.60217 865.11403 127.06678 864.37891 117.14258 L 929.80469 117.14258 C 929.92721 116.16241 929.98828 115.12027 929.98828 114.01758 L 929.98828 111.07812 C 929.98828 94.660312 926.55844 82.469724 919.69727 74.505859 C 912.83609 66.419474 902.97213 62.375 890.10742 62.375 z M 1238.498 62.375 C 1232.0044 62.375 1225.9998 63.600361 1220.4863 66.050781 C 1214.9729 68.37868 1210.1955 71.747447 1206.1523 76.158203 C 1202.2317 80.568959 1199.1683 85.899867 1196.9629 92.148438 C 1194.7575 98.274487 1193.6543 105.07309 1193.6543 112.54688 C 1193.6543 120.14318 1194.7575 127.00481 1196.9629 133.13086 C 1199.1683 139.25691 1202.2317 144.52479 1206.1523 148.93555 C 1210.1955 153.3463 1214.9729 156.7781 1220.4863 159.22852 C 1225.9998 161.55641 1232.0044 162.7207 1238.498 162.7207 C 1244.9917 162.7207 1250.9944 161.55641 1256.5078 159.22852 C 1262.0213 156.7781 1266.7375 153.3463 1270.6582 148.93555 C 1274.7014 144.52479 1277.8259 139.25691 1280.0312 133.13086 C 1282.2366 127.00481 1283.3398 120.14318 1283.3398 112.54688 C 1283.3398 105.07309 1282.2366 98.274487 1280.0312 92.148438 C 1277.8259 85.899867 1274.7014 80.568959 1270.6582 76.158203 C 1266.7375 71.747447 1262.0213 68.37868 1256.5078 66.050781 C 1250.9944 63.600361 1244.9917 62.375 1238.498 62.375 z M 1446.1191 62.375 C 1440.6057 62.375 1435.2137 63.417143 1429.9453 65.5 C 1424.6769 67.582857 1420.0217 70.707333 1415.9785 74.873047 C 1411.9353 79.038761 1408.6887 84.306643 1406.2383 90.677734 C 1403.7879 96.926305 1402.5625 104.27847 1402.5625 112.73242 C 1402.5625 119.96116 1403.4805 126.63762 1405.3184 132.76367 C 1407.2787 138.7672 1410.22 143.97401 1414.1406 148.38477 C 1418.0613 152.79552 1423.0238 156.28839 1429.0273 158.86133 C 1435.1534 161.31175 1442.3815 162.53711 1450.7129 162.53711 C 1457.329 162.53711 1463.2096 161.92443 1468.3555 160.69922 C 1473.6239 159.47401 1477.3 158.30972 1479.3828 157.20703 L 1476.9941 142.87109 C 1474.9113 143.85126 1471.7868 144.8934 1467.6211 145.99609 C 1463.5779 146.97626 1458.5543 147.4668 1452.5508 147.4668 C 1441.8915 147.4668 1434.0507 144.89393 1429.0273 139.74805 C 1424.004 134.60217 1421.1238 127.06678 1420.3887 117.14258 L 1485.8145 117.14258 C 1485.937 116.16241 1486 115.12027 1486 114.01758 L 1486 111.07812 C 1486 94.660312 1482.5682 82.469724 1475.707 74.505859 C 1468.8459 66.419474 1458.9838 62.375 1446.1191 62.375 z M 1655.0254 62.375 C 1649.5119 62.375 1644.1219 63.417143 1638.8535 65.5 C 1633.5851 67.582857 1628.9299 70.707333 1624.8867 74.873047 C 1620.8435 79.038761 1617.5969 84.306643 1615.1465 90.677734 C 1612.6961 96.926305 1611.4707 104.27847 1611.4707 112.73242 C 1611.4707 119.96116 1612.3887 126.63762 1614.2266 132.76367 C 1616.1869 138.7672 1619.1282 143.97401 1623.0488 148.38477 C 1626.9695 152.79552 1631.932 156.28839 1637.9355 158.86133 C 1644.0616 161.31175 1651.2897 162.53711 1659.6211 162.53711 C 1666.2372 162.53711 1672.1178 161.92443 1677.2637 160.69922 C 1682.5321 159.47401 1686.2082 158.30972 1688.291 157.20703 L 1685.9023 142.87109 C 1683.8195 143.85126 1680.695 144.8934 1676.5293 145.99609 C 1672.4861 146.97626 1667.4625 147.4668 1661.459 147.4668 C 1650.7997 147.4668 1642.9589 144.89393 1637.9355 139.74805 C 1632.9122 134.60217 1630.032 127.06678 1629.2969 117.14258 L 1694.7227 117.14258 C 1694.8452 116.16241 1694.9062 115.12027 1694.9062 114.01758 L 1694.9062 111.07812 C 1694.9062 94.660312 1691.4764 82.469724 1684.6152 74.505859 C 1677.7541 66.419474 1667.8901 62.375 1655.0254 62.375 z M 1551.5352 62.742188 C 1544.3064 62.742187 1537.8112 63.967549 1532.0527 66.417969 C 1526.2942 68.745868 1521.3948 72.055515 1517.3516 76.34375 C 1513.4309 80.509464 1510.4286 85.531102 1508.3457 91.412109 C 1506.2628 97.170596 1505.2207 103.54169 1505.2207 110.52539 C 1505.2207 118.48926 1506.3239 125.35089 1508.5293 131.10938 C 1510.7347 136.86786 1513.737 141.70823 1517.5352 145.62891 C 1521.3333 149.42706 1525.7442 152.24422 1530.7676 154.08203 C 1535.9135 155.91985 1541.3646 156.83984 1547.123 156.83984 C 1552.759 156.83984 1557.6605 156.10306 1561.8262 154.63281 C 1566.1144 153.04004 1568.9946 151.75361 1570.4648 150.77344 L 1570.4648 154.81836 C 1570.4648 163.63987 1568.1973 170.07204 1563.6641 174.11523 C 1559.2533 178.15843 1551.9642 180.17969 1541.7949 180.17969 C 1536.404 180.17969 1531.1952 179.62808 1526.1719 178.52539 C 1521.271 177.54522 1517.1064 176.38093 1513.6758 175.0332 L 1510.5508 189.91992 C 1514.4715 191.26765 1519.0656 192.43194 1524.334 193.41211 C 1529.7249 194.39228 1535.4223 194.88281 1541.4258 194.88281 C 1556.8634 194.88281 1568.3803 191.57316 1575.9766 184.95703 C 1583.5729 178.3409 1587.3711 167.68299 1587.3711 152.98047 L 1587.3711 67.705078 C 1583.3279 66.72491 1578.3043 65.682767 1572.3008 64.580078 C 1566.4198 63.354868 1559.499 62.742188 1551.5352 62.742188 z M 586.5918 64.763672 L 586.5918 118.42969 C 586.5918 124.9233 587.26555 130.86494 588.61328 136.25586 C 589.96101 141.52426 592.16744 146.11839 595.23047 150.03906 C 598.29349 153.95973 602.33601 157.02314 607.35938 159.22852 C 612.38274 161.31137 618.57062 162.35352 625.92188 162.35352 C 634.37582 162.35352 641.78906 161.80191 648.16016 160.69922 C 654.65377 159.59653 659.86058 158.55439 663.78125 157.57422 L 663.78125 64.763672 L 646.68945 64.763672 L 646.68945 145.44531 C 646.07685 145.69035 645.03471 145.93465 643.56445 146.17969 C 642.21672 146.30221 640.686 146.48543 638.9707 146.73047 C 637.25541 146.85299 635.41737 146.97709 633.45703 147.09961 C 631.4967 147.22213 629.59758 147.2832 627.75977 147.2832 C 619.06078 147.2832 612.8729 144.77141 609.19727 139.74805 C 605.52164 134.72469 603.68359 126.3934 603.68359 114.75391 L 603.68359 64.763672 L 586.5918 64.763672 z M 942.7793 64.763672 C 947.19005 81.671569 952.70223 98.397166 959.31836 114.9375 C 966.05701 131.35531 973.28704 146.91467 981.00586 161.61719 C 977.94283 168.35584 974.51104 173.19621 970.71289 176.13672 C 966.91474 179.19974 961.64686 180.73047 954.9082 180.73047 C 952.82535 180.73047 950.67999 180.4251 948.47461 179.8125 C 946.39175 179.32242 944.67781 178.77081 943.33008 178.1582 L 940.20508 191.94141 C 940.69516 192.18645 941.49106 192.49181 942.59375 192.85938 C 943.81896 193.22694 945.10539 193.53425 946.45312 193.7793 C 947.92338 194.14686 949.39498 194.39115 950.86523 194.51367 C 952.33549 194.75871 953.74407 194.88281 955.0918 194.88281 C 960.11516 194.88281 964.58714 194.27013 968.50781 193.04492 C 972.55101 191.81971 976.16602 189.9206 979.35156 187.34766 C 982.53711 184.77472 985.41534 181.46507 987.98828 177.42188 C 990.68374 173.5012 993.25661 168.78493 995.70703 163.27148 C 1001.9556 148.81401 1007.7751 133.31572 1013.166 116.77539 C 1018.5569 100.11254 1023.4584 82.774258 1027.8691 64.763672 L 1010.2266 64.763672 C 1007.1635 78.11846 1003.9169 91.1069 1000.4863 103.72656 C 997.05574 116.34622 993.01127 129.08842 988.35547 141.95312 C 985.41496 135.70455 982.59781 129.21131 979.90234 122.47266 C 977.20688 115.734 974.69509 108.99451 972.36719 102.25586 C 970.03929 95.517205 967.89588 88.962888 965.93555 82.591797 C 964.09773 76.220705 962.50398 70.277116 961.15625 64.763672 L 942.7793 64.763672 z M 889.92383 76.894531 C 896.90752 76.894531 902.36058 79.406327 906.28125 84.429688 C 910.32444 89.330527 912.28463 95.640553 912.16211 103.35938 L 864.74609 103.35938 C 865.11366 100.05131 865.84848 96.804686 866.95117 93.619141 C 868.17638 90.433595 869.83121 87.614482 871.91406 85.164062 C 873.99692 82.713643 876.50871 80.753455 879.44922 79.283203 C 882.51224 77.69043 886.00316 76.894531 889.92383 76.894531 z M 1445.9355 76.894531 C 1452.9192 76.894531 1458.3703 79.406327 1462.291 84.429688 C 1466.3342 89.330527 1468.2944 95.640553 1468.1719 103.35938 L 1420.7559 103.35938 C 1421.1234 100.05131 1421.8602 96.804686 1422.9629 93.619141 C 1424.1881 90.433595 1425.841 87.614482 1427.9238 85.164062 C 1430.0067 82.713643 1432.5185 80.753455 1435.459 79.283203 C 1438.522 77.69043 1442.0149 76.894531 1445.9355 76.894531 z M 1654.8418 76.894531 C 1661.8255 76.894531 1667.2785 79.406327 1671.1992 84.429688 C 1675.2424 89.330527 1677.2026 95.640553 1677.0801 103.35938 L 1629.6641 103.35938 C 1630.0316 100.05131 1630.7665 96.804686 1631.8691 93.619141 C 1633.0944 90.433595 1634.7492 87.614482 1636.832 85.164062 C 1638.9149 82.713643 1641.4267 80.753455 1644.3672 79.283203 C 1647.4302 77.69043 1650.9211 76.894531 1654.8418 76.894531 z M 1238.498 77.445312 C 1246.8295 77.445313 1253.3838 80.630862 1258.1621 87.001953 C 1263.0629 93.250524 1265.5137 101.76503 1265.5137 112.54688 C 1265.5137 123.32872 1263.0629 131.90625 1258.1621 138.27734 C 1253.3838 144.52591 1246.8295 147.65039 1238.498 147.65039 C 1230.1666 147.65039 1223.5493 144.52591 1218.6484 138.27734 C 1213.8701 131.90625 1211.4805 123.32872 1211.4805 112.54688 C 1211.4805 101.76503 1213.8701 93.250524 1218.6484 87.001953 C 1223.5493 80.630862 1230.1666 77.445312 1238.498 77.445312 z M 733.10742 77.628906 C 737.76322 77.628906 742.05003 78.424805 745.9707 80.017578 C 749.89137 81.610351 752.89371 83.265175 754.97656 84.980469 L 754.97656 145.44531 C 753.26127 145.9354 750.81055 146.42398 747.625 146.91406 C 744.56198 147.28163 740.70267 147.4668 736.04688 147.4668 C 726.8578 147.4668 719.50759 144.46447 713.99414 138.46094 C 708.4807 132.33489 705.72266 123.69629 705.72266 112.54688 C 705.72266 107.64604 706.21319 103.05191 707.19336 98.763672 C 708.17353 94.475437 709.76728 90.799353 711.97266 87.736328 C 714.17803 84.550782 716.99519 82.102013 720.42578 80.386719 C 723.97889 78.548904 728.20658 77.628906 733.10742 77.628906 z M 1551.7188 77.8125 C 1556.6196 77.8125 1560.4789 78.058744 1563.2969 78.548828 C 1566.2374 78.916391 1568.564 79.3439 1570.2793 79.833984 L 1570.2793 135.70508 C 1568.0739 137.42037 1565.0735 138.9511 1561.2754 140.29883 C 1557.4772 141.52404 1553.3106 142.13672 1548.7773 142.13672 C 1545.4693 142.13672 1542.2227 141.52404 1539.0371 140.29883 C 1535.9741 139.07362 1533.218 137.1745 1530.7676 134.60156 C 1528.4397 132.02862 1526.5406 128.782 1525.0703 124.86133 C 1523.7226 120.94066 1523.0488 116.22438 1523.0488 110.71094 C 1523.0488 100.78674 1525.4996 92.821888 1530.4004 86.818359 C 1535.4238 80.814831 1542.5297 77.8125 1551.7188 77.8125 z "
         style="font-style:normal;font-weight:normal;font-size:40px;line-height:125%;font-family:sans-serif;letter-spacing:0px;word-spacing:0px;fill:#ffffff;fill-opacity:1;stroke:none;stroke-width:1px;stroke-linecap:butt;stroke-linejoin:miter;stroke-opacity:1" />
      <path
         id="text3347"
         transform="translate(0,698.03145)"
         d="M 498.10352 230.31445 C 490.38469 230.31445 484.72516 232.33571 481.12305 236.37891 C 477.52093 240.34859 475.71875 246.01007 475.71875 253.36133 L 475.71875 315.88281 L 485.97461 315.88281 L 485.97461 267.14453 L 508.02734 267.14453 L 508.02734 258.54297 L 485.97461 258.54297 L 485.97461 253.58203 C 485.97461 249.17128 486.93047 245.67841 488.8418 243.10547 C 490.75312 240.45902 494.09863 239.13672 498.87695 239.13672 C 501.22936 239.13672 503.2128 239.35775 504.83008 239.79883 C 506.44736 240.16639 507.69793 240.57064 508.58008 241.01172 L 510.45508 232.18945 C 509.57293 231.82189 508.02764 231.41764 505.82227 230.97656 C 503.6904 230.53549 501.11753 230.31445 498.10352 230.31445 z M 723.31055 230.31445 L 713.05664 232.08008 L 713.05664 315.88281 L 723.31055 315.88281 L 723.31055 268.24805 C 723.67811 268.10102 724.26753 267.91585 725.07617 267.69531 C 725.95832 267.47477 726.91223 267.29156 727.94141 267.14453 C 729.0441 266.92399 730.18513 266.74078 731.36133 266.59375 C 732.53753 266.44672 733.67661 266.37305 734.7793 266.37305 C 737.49926 266.37305 739.77742 266.74144 741.61523 267.47656 C 743.45305 268.13818 744.92465 269.23944 746.02734 270.7832 C 747.13003 272.32697 747.90072 274.34823 748.3418 276.84766 C 748.85639 279.34708 749.11328 282.36202 749.11328 285.89062 L 749.11328 315.88281 L 759.36914 315.88281 L 759.36914 283.68555 C 759.36914 279.78938 759.00075 276.22284 758.26562 272.98828 C 757.5305 269.75373 756.24406 266.99764 754.40625 264.71875 C 752.64195 262.36635 750.25425 260.56612 747.24023 259.31641 C 744.22622 257.99318 740.43864 257.33008 735.88086 257.33008 C 733.74899 257.33008 731.58038 257.55111 729.375 257.99219 C 727.24313 258.35975 725.22187 258.91136 723.31055 259.64648 L 723.31055 230.31445 z M 914.33789 230.31445 L 904.08398 232.08008 L 904.08398 300.88672 C 904.08398 306.32665 905.40628 310.33331 908.05273 312.90625 C 910.69919 315.47919 915.18378 316.8393 921.50586 316.98633 L 922.93945 308.38477 C 921.32218 308.16423 919.96206 307.90733 918.85938 307.61328 C 917.75669 307.24572 916.8745 306.73193 916.21289 306.07031 C 915.55128 305.4087 915.07335 304.52652 914.7793 303.42383 C 914.48525 302.32114 914.33789 300.92321 914.33789 299.23242 L 914.33789 230.31445 z M 1649.168 234.72656 C 1647.3302 234.72656 1645.751 235.3499 1644.4277 236.59961 C 1643.178 237.77581 1642.5527 239.39477 1642.5527 241.45312 C 1642.5527 243.51148 1643.178 245.16435 1644.4277 246.41406 C 1645.751 247.59026 1647.3302 248.17773 1649.168 248.17773 C 1651.0058 248.17773 1652.5491 247.59026 1653.7988 246.41406 C 1655.1221 245.16435 1655.7852 243.51148 1655.7852 241.45312 C 1655.7852 239.39477 1655.1221 237.77581 1653.7988 236.59961 C 1652.5491 235.3499 1651.0058 234.72656 1649.168 234.72656 z M 1379.9707 237.70312 C 1377.1037 237.70312 1374.4572 238.14324 1372.0312 239.02539 C 1369.6788 239.90754 1367.6217 241.15811 1365.8574 242.77539 C 1364.1666 244.39267 1362.8065 246.37807 1361.7773 248.73047 C 1360.8217 251.08287 1360.3438 253.72942 1360.3438 256.66992 C 1360.3438 262.47742 1363.064 268.10108 1368.5039 273.54102 C 1366.372 274.57019 1364.313 275.78295 1362.3281 277.17969 C 1360.3433 278.50291 1358.5789 280.08211 1357.0352 281.91992 C 1355.5649 283.68422 1354.388 285.70744 1353.5059 287.98633 C 1352.6237 290.19171 1352.1836 292.72676 1352.1836 295.59375 C 1352.1836 297.87264 1352.5878 300.26229 1353.3965 302.76172 C 1354.2051 305.26115 1355.5652 307.57712 1357.4766 309.70898 C 1359.4614 311.76734 1362.0343 313.49389 1365.1953 314.89062 C 1368.3564 316.21385 1372.3252 316.87695 1377.1035 316.87695 C 1382.2494 316.87695 1386.8077 315.95696 1390.7773 314.11914 C 1394.747 312.20781 1398.2379 309.74449 1401.252 306.73047 C 1402.6487 308.27423 1403.9729 309.81952 1405.2227 311.36328 C 1406.5459 312.90705 1407.6491 314.41256 1408.5312 315.88281 L 1419.3379 315.88281 C 1417.9412 313.30987 1416.139 310.66333 1413.9336 307.94336 C 1411.8017 305.22339 1409.4499 302.46731 1406.877 299.67383 C 1409.0823 296.14522 1410.773 292.6165 1411.9492 289.08789 C 1413.1989 285.48577 1413.9696 282.17808 1414.2637 279.16406 L 1405.7734 278.06055 C 1405.0383 283.72102 1403.4213 288.86871 1400.9219 293.5 L 1383.0586 275.30469 C 1385.1169 274.202 1387.0645 272.95143 1388.9023 271.55469 C 1390.7402 270.15795 1392.3572 268.61462 1393.7539 266.92383 C 1395.2242 265.23304 1396.3652 263.35913 1397.1738 261.30078 C 1398.056 259.24243 1398.4961 256.92646 1398.4961 254.35352 C 1398.4961 252.07463 1398.0918 249.90601 1397.2832 247.84766 C 1396.4746 245.7893 1395.2618 244.02494 1393.6445 242.55469 C 1392.1008 241.08444 1390.1532 239.90754 1387.8008 239.02539 C 1385.5219 238.14324 1382.9112 237.70312 1379.9707 237.70312 z M 1475.7383 238.69531 C 1472.6508 238.69531 1469.2316 238.84267 1465.4824 239.13672 C 1461.8068 239.35726 1458.4632 239.83519 1455.4492 240.57031 L 1455.4492 314.66992 C 1458.4632 315.40505 1461.8068 315.88298 1465.4824 316.10352 C 1469.2316 316.39757 1472.6508 316.54492 1475.7383 316.54492 C 1481.9869 316.54492 1487.7201 315.77423 1492.9395 314.23047 C 1498.1588 312.61319 1502.6434 310.22354 1506.3926 307.0625 C 1510.1417 303.82795 1513.0452 299.78347 1515.1035 294.93164 C 1517.1619 290.0063 1518.1914 284.23723 1518.1914 277.62109 C 1518.1914 271.00496 1517.1619 265.2698 1515.1035 260.41797 C 1513.0452 255.49262 1510.1417 251.4501 1506.3926 248.28906 C 1502.6434 245.05451 1498.1588 242.66486 1492.9395 241.12109 C 1487.7201 239.50382 1481.9869 238.69531 1475.7383 238.69531 z M 536.71875 239.4668 L 536.71875 248.73047 L 560.75781 248.73047 L 560.75781 315.88281 L 571.45312 315.88281 L 571.45312 248.73047 L 595.49219 248.73047 L 595.49219 239.4668 L 536.71875 239.4668 z M 1193.3262 239.4668 C 1190.6797 244.98024 1188.1427 250.56805 1185.7168 256.22852 C 1183.2909 261.81547 1180.8276 267.69604 1178.3281 273.87109 C 1175.9022 280.04615 1173.403 286.58982 1170.8301 293.5 C 1168.2571 300.33667 1165.5011 307.79643 1162.5605 315.88281 L 1173.6973 315.88281 L 1180.6445 296.36523 L 1215.2695 296.36523 C 1216.4457 299.6733 1217.5848 302.94513 1218.6875 306.17969 C 1219.7902 309.34073 1220.9651 312.57475 1222.2148 315.88281 L 1233.9043 315.88281 C 1230.9638 307.79643 1228.2077 300.33667 1225.6348 293.5 C 1223.0618 286.58982 1220.5248 280.04615 1218.0254 273.87109 C 1215.5995 267.69604 1213.174 261.81547 1210.748 256.22852 C 1208.3221 250.56805 1205.7851 244.98024 1203.1387 239.4668 L 1193.3262 239.4668 z M 1295.7461 240.79102 L 1285.4902 242.55469 L 1285.4902 293.71875 C 1285.4902 297.5414 1285.7849 300.92473 1286.373 303.86523 C 1287.0347 306.73223 1288.1379 309.15774 1289.6816 311.14258 C 1291.2254 313.12742 1293.2467 314.63489 1295.7461 315.66406 C 1298.319 316.61973 1301.5531 317.0957 1305.4492 317.0957 C 1308.7573 317.0957 1311.6985 316.69145 1314.2715 315.88281 C 1316.8444 315.14769 1318.6447 314.52435 1319.6738 314.00977 L 1317.6895 305.51758 C 1316.9543 305.81163 1315.632 306.32737 1313.7207 307.0625 C 1311.8829 307.72411 1309.4196 308.05469 1306.332 308.05469 C 1304.5677 308.05469 1303.0244 307.83365 1301.7012 307.39258 C 1300.3779 306.9515 1299.2747 306.21668 1298.3926 305.1875 C 1297.5104 304.08481 1296.8493 302.61516 1296.4082 300.77734 C 1295.9671 298.86602 1295.7461 296.47637 1295.7461 293.60938 L 1295.7461 267.14453 L 1317.4688 267.14453 L 1317.4688 258.54297 L 1295.7461 258.54297 L 1295.7461 240.79102 z M 1379.9707 245.75195 C 1382.8377 245.75195 1385.08 246.63414 1386.6973 248.39844 C 1388.3881 250.08923 1389.2344 252.18417 1389.2344 254.68359 C 1389.2344 256.59492 1388.9018 258.32342 1388.2402 259.86719 C 1387.6521 261.33744 1386.8078 262.69755 1385.7051 263.94727 C 1384.6759 265.19698 1383.4253 266.3002 1381.9551 267.25586 C 1380.5583 268.21152 1379.0528 269.09371 1377.4355 269.90234 C 1372.4367 265.34456 1369.9355 260.6748 1369.9355 255.89648 C 1369.9355 253.02949 1370.7819 250.6418 1372.4727 248.73047 C 1374.237 246.74563 1376.7361 245.75195 1379.9707 245.75195 z M 1476.6191 248.06836 C 1486.7639 248.06836 1494.3371 250.67709 1499.3359 255.89648 C 1504.3348 261.04237 1506.834 268.28499 1506.834 277.62109 C 1506.834 286.95719 1504.3348 294.23373 1499.3359 299.45312 C 1494.3371 304.59901 1486.7639 307.17188 1476.6191 307.17188 C 1473.6051 307.17188 1471.2533 307.13601 1469.5625 307.0625 C 1467.9452 306.98899 1466.8061 306.91531 1466.1445 306.8418 L 1466.1445 248.39844 C 1466.8061 248.32492 1467.9452 248.25125 1469.5625 248.17773 C 1471.2533 248.10422 1473.6051 248.06836 1476.6191 248.06836 z M 1197.957 251.70703 C 1200.4565 257.22048 1202.8461 262.9915 1205.125 269.01953 C 1207.4774 274.97405 1209.8292 281.14933 1212.1816 287.54492 L 1183.7324 287.54492 C 1186.0113 281.14933 1188.2895 274.97405 1190.5684 269.01953 C 1192.9208 262.9915 1195.3841 257.22048 1197.957 251.70703 z M 434.38672 257.10938 C 430.49055 257.10938 426.88814 257.84615 423.58008 259.31641 C 420.27201 260.71315 417.40443 262.73441 414.97852 265.38086 C 412.62611 268.02731 410.78807 271.22547 409.46484 274.97461 C 408.14162 278.65024 407.48047 282.72862 407.48047 287.21289 C 407.48047 291.77067 408.14162 295.88882 409.46484 299.56445 C 410.78807 303.24008 412.62611 306.40042 414.97852 309.04688 C 417.40443 311.69333 420.27201 313.7524 423.58008 315.22266 C 426.88814 316.6194 430.49055 317.31641 434.38672 317.31641 C 438.28289 317.31641 441.88334 316.6194 445.19141 315.22266 C 448.49947 313.7524 451.33119 311.69333 453.68359 309.04688 C 456.10951 306.40042 457.98341 303.24008 459.30664 299.56445 C 460.62987 295.88882 461.29102 291.77067 461.29102 287.21289 C 461.29102 282.72862 460.62987 278.65024 459.30664 274.97461 C 457.98341 271.22547 456.10951 268.02731 453.68359 265.38086 C 451.33119 262.73441 448.49947 260.71315 445.19141 259.31641 C 441.88334 257.84615 438.28289 257.10938 434.38672 257.10938 z M 623.13867 257.10938 C 619.83061 257.10938 616.59659 257.73466 613.43555 258.98438 C 610.27451 260.23409 607.4806 262.10995 605.05469 264.60938 C 602.62877 267.1088 600.68119 270.26914 599.21094 274.0918 C 597.74069 277.84094 597.00586 282.25185 597.00586 287.32422 C 597.00586 291.66146 597.55551 295.66812 598.6582 299.34375 C 599.8344 302.94587 601.59877 306.07034 603.95117 308.7168 C 606.30357 311.36325 609.2807 313.45819 612.88281 315.00195 C 616.55844 316.4722 620.89567 317.20703 625.89453 317.20703 C 629.86421 317.20703 633.39294 316.83864 636.48047 316.10352 C 639.64151 315.36839 641.84794 314.67138 643.09766 314.00977 L 641.66406 305.4082 C 640.41435 305.9963 638.54044 306.62159 636.04102 307.2832 C 633.6151 307.8713 630.60016 308.16406 626.99805 308.16406 C 620.60245 308.16406 615.89683 306.62073 612.88281 303.5332 C 609.8688 300.44567 608.14225 295.92522 607.70117 289.9707 L 646.95703 289.9707 C 647.03054 289.3826 647.06641 288.75732 647.06641 288.0957 L 647.06641 286.33203 C 647.06641 276.48134 645.00928 269.16699 640.89258 264.38867 C 636.77587 259.53684 630.85749 257.10938 623.13867 257.10938 z M 686.05664 257.10938 C 681.86642 257.10938 678.04494 257.88202 674.58984 259.42578 C 671.20826 260.89603 668.34068 262.99097 665.98828 265.71094 C 663.63588 268.35739 661.79784 271.51968 660.47461 275.19531 C 659.2249 278.87094 658.59961 282.91346 658.59961 287.32422 C 658.59961 291.73497 659.18903 295.7775 660.36523 299.45312 C 661.54144 303.05524 663.3058 306.17972 665.6582 308.82617 C 668.08412 311.47263 671.02342 313.5317 674.47852 315.00195 C 678.00712 316.4722 682.08746 317.20703 686.71875 317.20703 C 688.189 317.20703 689.69647 317.09749 691.24023 316.87695 C 692.85751 316.72993 694.36498 316.50889 695.76172 316.21484 C 697.15846 315.99431 698.40708 315.73741 699.50977 315.44336 C 700.61245 315.0758 701.45877 314.70741 702.04688 314.33984 L 700.61328 305.73828 C 699.36357 306.32638 697.63507 306.87799 695.42969 307.39258 C 693.22431 307.90717 690.76293 308.16406 688.04297 308.16406 C 684.66139 308.16406 681.79381 307.68613 679.44141 306.73047 C 677.089 305.70129 675.14142 304.26946 673.59766 302.43164 C 672.1274 300.59383 671.02419 298.38739 670.28906 295.81445 C 669.62745 293.24151 669.29688 290.41175 669.29688 287.32422 C 669.29688 280.41403 670.80434 275.1568 673.81836 271.55469 C 676.90589 267.95257 681.3168 266.15234 687.05078 266.15234 C 689.32967 266.15234 691.46047 266.37338 693.44531 266.81445 C 695.50367 267.25553 697.30389 267.843 698.84766 268.57812 L 701.16406 259.86719 C 698.81166 258.91152 696.34833 258.21256 693.77539 257.77148 C 691.20245 257.33041 688.62958 257.10938 686.05664 257.10938 z M 862.9707 257.10938 C 859.07454 257.10938 855.47213 257.84615 852.16406 259.31641 C 848.856 260.71315 845.98842 262.73441 843.5625 265.38086 C 841.2101 268.02731 839.37205 271.22547 838.04883 274.97461 C 836.7256 278.65024 836.06445 282.72862 836.06445 287.21289 C 836.06445 291.77067 836.7256 295.88882 838.04883 299.56445 C 839.37205 303.24008 841.2101 306.40042 843.5625 309.04688 C 845.98842 311.69333 848.856 313.7524 852.16406 315.22266 C 855.47213 316.6194 859.07454 317.31641 862.9707 317.31641 C 866.86687 317.31641 870.46928 316.6194 873.77734 315.22266 C 877.08541 313.7524 879.91518 311.69333 882.26758 309.04688 C 884.69349 306.40042 886.5674 303.24008 887.89062 299.56445 C 889.21385 295.88882 889.875 291.77067 889.875 287.21289 C 889.875 282.72862 889.21385 278.65024 887.89062 274.97461 C 886.5674 271.22547 884.69349 268.02731 882.26758 265.38086 C 879.91518 262.73441 877.08541 260.71315 873.77734 259.31641 C 870.46928 257.84615 866.86687 257.10938 862.9707 257.10938 z M 958.16406 257.10938 C 954.2679 257.10938 950.66549 257.84615 947.35742 259.31641 C 944.04936 260.71315 941.18177 262.73441 938.75586 265.38086 C 936.40346 268.02731 934.56541 271.22547 933.24219 274.97461 C 931.91896 278.65024 931.25781 282.72862 931.25781 287.21289 C 931.25781 291.77067 931.91896 295.88882 933.24219 299.56445 C 934.56541 303.24008 936.40346 306.40042 938.75586 309.04688 C 941.18177 311.69333 944.04936 313.7524 947.35742 315.22266 C 950.66549 316.6194 954.2679 317.31641 958.16406 317.31641 C 962.06023 317.31641 965.66068 316.6194 968.96875 315.22266 C 972.27682 313.7524 975.10853 311.69333 977.46094 309.04688 C 979.88685 306.40042 981.76076 303.24008 983.08398 299.56445 C 984.40721 295.88882 985.06836 291.77067 985.06836 287.21289 C 985.06836 282.72862 984.40721 278.65024 983.08398 274.97461 C 981.76076 271.22547 979.88685 268.02731 977.46094 265.38086 C 975.10853 262.73441 972.27682 260.71315 968.96875 259.31641 C 965.66068 257.84615 962.06023 257.10938 958.16406 257.10938 z M 1556.332 257.10938 C 1553.024 257.10938 1549.7899 257.73466 1546.6289 258.98438 C 1543.4679 260.23409 1540.674 262.10995 1538.248 264.60938 C 1535.8221 267.1088 1533.8745 270.26914 1532.4043 274.0918 C 1530.934 277.84094 1530.1992 282.25185 1530.1992 287.32422 C 1530.1992 291.66146 1530.7508 295.66812 1531.8535 299.34375 C 1533.0297 302.94587 1534.7941 306.07034 1537.1465 308.7168 C 1539.4989 311.36325 1542.476 313.45819 1546.0781 315.00195 C 1549.7538 316.4722 1554.091 317.20703 1559.0898 317.20703 C 1563.0595 317.20703 1566.5883 316.83864 1569.6758 316.10352 C 1572.8368 315.36839 1575.0413 314.67138 1576.291 314.00977 L 1574.8574 305.4082 C 1573.6077 305.9963 1571.7338 306.62159 1569.2344 307.2832 C 1566.8085 307.8713 1563.7935 308.16406 1560.1914 308.16406 C 1553.7958 308.16406 1549.0921 306.62073 1546.0781 303.5332 C 1543.0641 300.44567 1541.3356 295.92522 1540.8945 289.9707 L 1580.1504 289.9707 C 1580.2239 289.3826 1580.2598 288.75732 1580.2598 288.0957 L 1580.2598 286.33203 C 1580.2598 276.48134 1578.2026 269.16699 1574.0859 264.38867 C 1569.9692 259.53684 1564.0509 257.10938 1556.332 257.10938 z M 1612.4141 257.10938 C 1605.945 257.10938 1600.837 258.61684 1597.0879 261.63086 C 1593.3387 264.57136 1591.4629 268.57802 1591.4629 273.65039 C 1591.4629 276.22333 1591.905 278.39195 1592.7871 280.15625 C 1593.6693 281.92055 1594.8442 283.42802 1596.3145 284.67773 C 1597.7847 285.92745 1599.5132 287.03066 1601.498 287.98633 C 1603.5564 288.86848 1605.6872 289.75066 1607.8926 290.63281 C 1612.4504 292.47063 1615.7222 294.1235 1617.707 295.59375 C 1619.6919 297.064 1620.6836 299.0494 1620.6836 301.54883 C 1620.6836 303.97474 1619.656 305.73911 1617.5977 306.8418 C 1615.6128 307.94449 1612.5242 308.49609 1608.334 308.49609 C 1604.0703 308.49609 1600.653 308.05403 1598.0801 307.17188 C 1595.5071 306.28972 1593.6313 305.62858 1592.4551 305.1875 L 1590.582 314.00977 C 1591.6112 314.45084 1593.5588 315.07417 1596.4258 315.88281 C 1599.2928 316.76496 1603.2616 317.20703 1608.334 317.20703 C 1615.6117 317.20703 1621.1995 315.84692 1625.0957 313.12695 C 1629.0654 310.40699 1631.0488 306.40033 1631.0488 301.10742 C 1631.0488 298.38746 1630.6446 296.1093 1629.8359 294.27148 C 1629.0273 292.36016 1627.8524 290.74315 1626.3086 289.41992 C 1624.8383 288.0967 1623.0362 286.95566 1620.9043 286 C 1618.7724 284.97082 1616.3469 283.94324 1613.627 282.91406 C 1611.5686 282.17894 1609.8042 281.47997 1608.334 280.81836 C 1606.8637 280.15675 1605.6151 279.45778 1604.5859 278.72266 C 1603.6303 277.91402 1602.8935 277.03184 1602.3789 276.07617 C 1601.9378 275.12051 1601.7188 274.01729 1601.7188 272.76758 C 1601.7188 270.34166 1602.7842 268.57925 1604.916 267.47656 C 1607.0479 266.30036 1609.5471 265.71094 1612.4141 265.71094 C 1615.7221 265.71094 1618.5519 266.04151 1620.9043 266.70312 C 1623.2567 267.29123 1624.9852 267.88065 1626.0879 268.46875 L 1627.9629 259.64648 C 1627.3748 259.42595 1626.5285 259.16905 1625.4258 258.875 C 1624.3966 258.58095 1623.1838 258.32405 1621.7871 258.10352 C 1620.3904 257.80947 1618.8829 257.58843 1617.2656 257.44141 C 1615.6483 257.22087 1614.0313 257.10938 1612.4141 257.10938 z M 798.76953 257.33008 C 793.69716 257.33008 789.21257 257.66261 785.31641 258.32422 C 781.42024 258.98583 778.29576 259.60916 775.94336 260.19727 L 775.94336 315.88281 L 786.19922 315.88281 L 786.19922 267.47656 C 786.56678 267.40305 787.15425 267.29156 787.96289 267.14453 C 788.84504 266.99751 789.8009 266.88797 790.83008 266.81445 C 791.93277 266.66743 793.07185 266.55593 794.24805 266.48242 C 795.42425 266.40891 796.56333 266.37305 797.66602 266.37305 C 800.38598 266.37305 802.66609 266.74144 804.50391 267.47656 C 806.34172 268.13818 807.81137 269.23944 808.91406 270.7832 C 810.01675 272.32697 810.78939 274.34823 811.23047 276.84766 C 811.74506 279.34708 812.00195 282.36202 812.00195 285.89062 L 812.00195 315.88281 L 822.25586 315.88281 L 822.25586 283.68555 C 822.25586 279.78938 821.88942 276.22284 821.1543 272.98828 C 820.41917 269.75373 819.13274 266.99764 817.29492 264.71875 C 815.53062 262.36635 813.14097 260.56612 810.12695 259.31641 C 807.11294 257.99318 803.32731 257.33008 798.76953 257.33008 z M 1024.0859 257.33008 C 1019.7487 257.33008 1015.8535 258.06686 1012.3984 259.53711 C 1008.9433 260.93385 1006.0021 262.91729 1003.5762 265.49023 C 1001.2238 267.98966 999.42354 271.0046 998.17383 274.5332 C 996.92411 277.9883 996.29883 281.80978 996.29883 286 C 996.29883 290.77832 996.95998 294.89647 998.2832 298.35156 C 999.60643 301.80665 1001.4086 304.7101 1003.6875 307.0625 C 1005.9664 309.34139 1008.6129 311.03208 1011.627 312.13477 C 1014.7145 313.23745 1017.9844 313.78906 1021.4395 313.78906 C 1024.821 313.78906 1027.7623 313.34699 1030.2617 312.46484 C 1032.8347 311.50918 1034.5632 310.73849 1035.4453 310.15039 L 1035.4453 312.57617 C 1035.4453 317.86908 1034.0852 321.72838 1031.3652 324.1543 C 1028.7188 326.58021 1024.3437 327.79297 1018.2422 327.79297 C 1015.0076 327.79297 1011.8832 327.46239 1008.8691 326.80078 C 1005.9286 326.21268 1003.4294 325.51372 1001.3711 324.70508 L 999.49609 333.63672 C 1001.8485 334.44536 1004.6065 335.14432 1007.7676 335.73242 C 1011.0021 336.32052 1014.4194 336.61328 1018.0215 336.61328 C 1027.2841 336.61328 1034.1942 334.62984 1038.752 330.66016 C 1043.3097 326.69048 1045.5898 320.29417 1045.5898 311.47266 L 1045.5898 260.30859 C 1043.1639 259.72049 1040.149 259.09521 1036.5469 258.43359 C 1033.0183 257.69847 1028.8643 257.33008 1024.0859 257.33008 z M 1264.6816 257.33008 C 1260.1974 257.33008 1256.1549 257.73433 1252.5527 258.54297 C 1248.9506 259.27809 1245.9357 260.08855 1243.5098 260.9707 L 1243.5098 315.88281 L 1253.7656 315.88281 L 1253.7656 267.69531 C 1254.3537 267.54829 1255.5665 267.29139 1257.4043 266.92383 C 1259.3156 266.48275 1261.2254 266.26172 1263.1367 266.26172 C 1266.0772 266.26172 1268.4669 266.48275 1270.3047 266.92383 C 1272.216 267.29139 1273.5761 267.62197 1274.3848 267.91602 L 1276.1484 258.98438 C 1275.7074 258.83735 1275.0104 258.68999 1274.0547 258.54297 C 1273.1725 258.32243 1272.1789 258.13921 1271.0762 257.99219 C 1269.9735 257.77165 1268.8344 257.62429 1267.6582 257.55078 C 1266.5555 257.40376 1265.5638 257.33008 1264.6816 257.33008 z M 1696.6836 257.33008 C 1692.3464 257.33008 1688.4512 258.06686 1684.9961 259.53711 C 1681.541 260.93385 1678.5997 262.91729 1676.1738 265.49023 C 1673.8214 267.98966 1672.0212 271.0046 1670.7715 274.5332 C 1669.5218 277.9883 1668.8965 281.80978 1668.8965 286 C 1668.8965 290.77832 1669.5576 294.89647 1670.8809 298.35156 C 1672.2041 301.80665 1674.0043 304.7101 1676.2832 307.0625 C 1678.5621 309.34139 1681.2086 311.03208 1684.2227 312.13477 C 1687.3102 313.23745 1690.582 313.78906 1694.0371 313.78906 C 1697.4187 313.78906 1700.3599 313.34699 1702.8594 312.46484 C 1705.4323 311.50918 1707.1589 310.73849 1708.041 310.15039 L 1708.041 312.57617 C 1708.041 317.86908 1706.6809 321.72838 1703.9609 324.1543 C 1701.3145 326.58021 1696.9414 327.79297 1690.8398 327.79297 C 1687.6053 327.79297 1684.4808 327.46239 1681.4668 326.80078 C 1678.5263 326.21268 1676.0271 325.51372 1673.9688 324.70508 L 1672.0938 333.63672 C 1674.4462 334.44536 1677.2022 335.14432 1680.3633 335.73242 C 1683.5978 336.32052 1687.017 336.61328 1690.6191 336.61328 C 1699.8817 336.61328 1706.7918 334.62984 1711.3496 330.66016 C 1715.9074 326.69048 1718.1855 320.29417 1718.1855 311.47266 L 1718.1855 260.30859 C 1715.7596 259.72049 1712.7466 259.09521 1709.1445 258.43359 C 1705.6159 257.69847 1701.4619 257.33008 1696.6836 257.33008 z M 1758.668 257.33008 C 1753.5956 257.33008 1749.113 257.66261 1745.2168 258.32422 C 1741.3206 258.98583 1738.1962 259.60916 1735.8438 260.19727 L 1735.8438 315.88281 L 1746.0977 315.88281 L 1746.0977 267.47656 C 1746.4652 267.40305 1747.0546 267.29156 1747.8633 267.14453 C 1748.7454 266.99751 1749.6993 266.88797 1750.7285 266.81445 C 1751.8312 266.66743 1752.9722 266.55593 1754.1484 266.48242 C 1755.3246 266.40891 1756.4637 266.37305 1757.5664 266.37305 C 1760.2864 266.37305 1762.5645 266.74144 1764.4023 267.47656 C 1766.2402 268.13818 1767.7118 269.23944 1768.8145 270.7832 C 1769.9171 272.32697 1770.6878 274.34823 1771.1289 276.84766 C 1771.6435 279.34708 1771.9004 282.36202 1771.9004 285.89062 L 1771.9004 315.88281 L 1782.1562 315.88281 L 1782.1562 283.68555 C 1782.1563 279.78938 1781.7879 276.22284 1781.0527 272.98828 C 1780.3176 269.75373 1779.0312 266.99764 1777.1934 264.71875 C 1775.4291 262.36635 1773.0414 260.56612 1770.0273 259.31641 C 1767.0133 257.99318 1763.2257 257.33008 1758.668 257.33008 z M 1056.1895 258.54297 C 1058.8359 268.68771 1062.1436 278.72228 1066.1133 288.64648 C 1070.1565 298.49717 1074.4937 307.83474 1079.125 316.65625 C 1077.2872 320.69944 1075.2281 323.60289 1072.9492 325.36719 C 1070.6703 327.205 1067.51 328.12305 1063.4668 328.12305 C 1062.2171 328.12305 1060.9306 327.93983 1059.6074 327.57227 C 1058.3577 327.27822 1057.3282 326.94764 1056.5195 326.58008 L 1054.6445 334.84961 C 1054.9386 334.99663 1055.4165 335.17985 1056.0781 335.40039 C 1056.8133 335.62093 1057.5859 335.8061 1058.3945 335.95312 C 1059.2767 336.17366 1060.1589 336.32102 1061.041 336.39453 C 1061.9232 336.54156 1062.7675 336.61328 1063.5762 336.61328 C 1066.5902 336.61328 1069.2746 336.24684 1071.627 335.51172 C 1074.0529 334.77659 1076.2215 333.63751 1078.1328 332.09375 C 1080.0441 330.54999 1081.7707 328.56459 1083.3145 326.13867 C 1084.9317 323.78627 1086.4751 320.9565 1087.9453 317.64844 C 1091.6945 308.97395 1095.1873 299.6742 1098.4219 289.75 C 1101.6564 279.75229 1104.5977 269.34932 1107.2441 258.54297 L 1096.6582 258.54297 C 1094.8204 266.55584 1092.8709 274.34812 1090.8125 281.91992 C 1088.7541 289.49172 1086.3286 297.1386 1083.5352 304.85742 C 1081.7709 301.10828 1080.0802 297.21116 1078.4629 293.16797 C 1076.8456 289.12478 1075.3381 285.08226 1073.9414 281.03906 C 1072.5447 276.99587 1071.2582 273.06289 1070.082 269.24023 C 1068.9793 265.41758 1068.0235 261.85104 1067.2148 258.54297 L 1056.1895 258.54297 z M 1644.0957 258.54297 L 1644.0957 315.88281 L 1654.3516 315.88281 L 1654.3516 258.54297 L 1644.0957 258.54297 z M 623.0293 265.82227 C 627.21951 265.82227 630.48939 267.32778 632.8418 270.3418 C 635.26771 273.2823 636.44461 277.06988 636.37109 281.70117 L 607.92188 281.70117 C 608.14241 279.71633 608.58253 277.7668 609.24414 275.85547 C 609.97927 273.94414 610.97294 272.25345 612.22266 270.7832 C 613.47237 269.31295 614.97789 268.13801 616.74219 267.25586 C 618.58 266.3002 620.67689 265.82227 623.0293 265.82227 z M 1556.2227 265.82227 C 1560.4129 265.82227 1563.6828 267.32778 1566.0352 270.3418 C 1568.4611 273.2823 1569.638 277.06988 1569.5645 281.70117 L 1541.1152 281.70117 C 1541.3358 279.71633 1541.7759 277.7668 1542.4375 275.85547 C 1543.1726 273.94414 1544.1663 272.25345 1545.416 270.7832 C 1546.6657 269.31295 1548.1732 268.13801 1549.9375 267.25586 C 1551.7753 266.3002 1553.8703 265.82227 1556.2227 265.82227 z M 434.38672 266.15234 C 439.38558 266.15234 443.31856 268.06406 446.18555 271.88672 C 449.12605 275.63586 450.5957 280.74378 450.5957 287.21289 C 450.5957 293.682 449.12605 298.82969 446.18555 302.65234 C 443.31856 306.40149 439.38558 308.27539 434.38672 308.27539 C 429.38786 308.27539 425.41707 306.40149 422.47656 302.65234 C 419.60957 298.82969 418.17578 293.682 418.17578 287.21289 C 418.17578 280.74378 419.60957 275.63586 422.47656 271.88672 C 425.41707 268.06406 429.38786 266.15234 434.38672 266.15234 z M 862.9707 266.15234 C 867.96956 266.15234 871.90254 268.06406 874.76953 271.88672 C 877.71003 275.63586 879.17969 280.74378 879.17969 287.21289 C 879.17969 293.682 877.71003 298.82969 874.76953 302.65234 C 871.90254 306.40149 867.96956 308.27539 862.9707 308.27539 C 857.97185 308.27539 854.00105 306.40149 851.06055 302.65234 C 848.19356 298.82969 846.75977 293.682 846.75977 287.21289 C 846.75977 280.74378 848.19356 275.63586 851.06055 271.88672 C 854.00105 268.06406 857.97185 266.15234 862.9707 266.15234 z M 958.16406 266.15234 C 963.16292 266.15234 967.09395 268.06406 969.96094 271.88672 C 972.90144 275.63586 974.37305 280.74378 974.37305 287.21289 C 974.37305 293.682 972.90144 298.82969 969.96094 302.65234 C 967.09395 306.40149 963.16292 308.27539 958.16406 308.27539 C 953.16521 308.27539 949.19441 306.40149 946.25391 302.65234 C 943.38692 298.82969 941.95312 293.682 941.95312 287.21289 C 941.95312 280.74378 943.38692 275.63586 946.25391 271.88672 C 949.19441 268.06406 953.16521 266.15234 958.16406 266.15234 z M 1024.1973 266.37305 C 1027.1378 266.37305 1029.4537 266.5204 1031.1445 266.81445 C 1032.9088 267.03499 1034.3048 267.29189 1035.334 267.58594 L 1035.334 301.10742 C 1034.0108 302.1366 1032.2105 303.0566 1029.9316 303.86523 C 1027.6528 304.60036 1025.1536 304.9668 1022.4336 304.9668 C 1020.4488 304.9668 1018.4992 304.60036 1016.5879 303.86523 C 1014.7501 303.13011 1013.0972 301.98908 1011.627 300.44531 C 1010.2302 298.90155 1009.0911 296.95397 1008.209 294.60156 C 1007.4003 292.24916 1006.9941 289.41939 1006.9941 286.11133 C 1006.9941 280.15681 1008.4657 275.37751 1011.4062 271.77539 C 1014.4203 268.17327 1018.6838 266.37305 1024.1973 266.37305 z M 1696.7949 266.37305 C 1699.7354 266.37305 1702.0494 266.5204 1703.7402 266.81445 C 1705.5045 267.03499 1706.9025 267.29189 1707.9316 267.58594 L 1707.9316 301.10742 C 1706.6084 302.1366 1704.8062 303.0566 1702.5273 303.86523 C 1700.2485 304.60036 1697.7493 304.9668 1695.0293 304.9668 C 1693.0445 304.9668 1691.0969 304.60036 1689.1855 303.86523 C 1687.3477 303.13011 1685.6929 301.98908 1684.2227 300.44531 C 1682.8259 298.90155 1681.6868 296.95397 1680.8047 294.60156 C 1679.996 292.24916 1679.5918 289.41939 1679.5918 286.11133 C 1679.5918 280.15681 1681.0614 275.37751 1684.002 271.77539 C 1687.016 268.17327 1691.2815 266.37305 1696.7949 266.37305 z M 1373.9062 279.05469 L 1395.4082 300.77734 C 1393.0558 303.20326 1390.3356 305.07716 1387.248 306.40039 C 1384.234 307.72362 1380.9263 308.38477 1377.3242 308.38477 C 1374.5307 308.38477 1372.1789 307.98051 1370.2676 307.17188 C 1368.4298 306.28972 1366.9223 305.22432 1365.7461 303.97461 C 1364.5699 302.65138 1363.7255 301.21759 1363.2109 299.67383 C 1362.6963 298.13006 1362.4375 296.69627 1362.4375 295.37305 C 1362.4375 293.02064 1362.7681 290.96352 1363.4297 289.19922 C 1364.1648 287.43492 1365.0848 285.92745 1366.1875 284.67773 C 1367.2902 283.35451 1368.5029 282.25129 1369.8262 281.36914 C 1371.2229 280.48699 1372.583 279.7163 1373.9062 279.05469 z M 1117.6191 303.3125 C 1117.6927 304.12114 1117.7285 304.96746 1117.7285 305.84961 C 1117.802 306.73176 1117.8398 307.64981 1117.8398 308.60547 C 1117.8398 311.98705 1117.5451 315.58945 1116.957 319.41211 C 1116.3689 323.30828 1115.1562 327.13172 1113.3184 330.88086 L 1121.2578 333.41602 C 1123.6102 329.29931 1125.4483 324.96208 1126.7715 320.4043 C 1128.1682 315.92003 1128.8672 311.36176 1128.8672 306.73047 L 1128.8672 305.07812 C 1128.8672 304.49002 1128.8294 303.9006 1128.7559 303.3125 L 1117.6191 303.3125 z "
         style="font-style:normal;font-weight:normal;font-size:110.26889038px;line-height:125%;font-family:sans-serif;letter-spacing:0px;word-spacing:0px;fill:#ffffff;fill-opacity:1;stroke:none;stroke-width:1px;stroke-linecap:butt;stroke-linejoin:miter;stroke-opacity:1" />
    </g>
  </g>
</svg>
