<?xml version="1.0" encoding="UTF-8" standalone="no"?>
<svg
   xmlns:dc="http://purl.org/dc/elements/1.1/"
   xmlns:cc="http://creativecommons.org/ns#"
   xmlns:rdf="http://www.w3.org/1999/02/22-rdf-syntax-ns#"
   xmlns:svg="http://www.w3.org/2000/svg"
   xmlns="http://www.w3.org/2000/svg"
   version="1.1"
   id="svg2"
   viewBox="0 0 354.3307 354.33071"
   height="100mm"
   width="100mm">
  <defs
     id="defs4" />
  <metadata
     id="metadata7">
    <rdf:RDF>
      <cc:Work
         rdf:about="">
        <dc:format>image/svg+xml</dc:format>
        <dc:type
           rdf:resource="http://purl.org/dc/dcmitype/StillImage" />
        <dc:title></dc:title>
      </cc:Work>
    </rdf:RDF>
  </metadata>
  <g
     transform="translate(0,-698.03145)"
     id="layer1">
    <g
       id="text4136"
       style="font-style:normal;font-weight:normal;font-size:40px;line-height:125%;font-family:sans-serif;letter-spacing:0px;word-spacing:0px;fill:#000000;fill-opacity:1;stroke:none;stroke-width:1px;stroke-linecap:butt;stroke-linejoin:miter;stroke-opacity:1" />
    <g
       id="text4140"
       style="font-style:normal;font-variant:normal;font-weight:normal;font-stretch:normal;font-size:40px;line-height:125%;font-family:Arial;-inkscape-font-specification:Arial;letter-spacing:0px;word-spacing:0px;fill:#000000;fill-opacity:1;stroke:none;stroke-width:1px;stroke-linecap:butt;stroke-linejoin:miter;stroke-opacity:1">
      <circle
         r="173.62207"
         cy="875.1969"
         cx="177.16539"
         id="path4157"
         style="fill:#4caf50;fill-opacity:1;stroke:#000000;stroke-width:7.08661509;stroke-miterlimit:4;stroke-dasharray:none;stroke-opacity:1" />
      <path
         id="path4194-9"
         d="m 287.79348,952.97052 -54.55082,10.60533 -59.19042,-31.95752 -3.5579,-111.92462 -49.90609,-28.29662 -55.351242,3.27112 -23.5905,23.5905 -36.5312523,36.53126 C -10.368466,918.04418 44.341927,1054.0128 192.43269,1048.2081 Z"
         style="font-style:normal;font-variant:normal;font-weight:normal;font-stretch:normal;font-size:40px;line-height:125%;font-family:Arial;-inkscape-font-specification:Arial;letter-spacing:0px;word-spacing:0px;fill:#000000;fill-opacity:0.19607843;fill-rule:evenodd;stroke:none;stroke-width:3.54330754;stroke-linecap:butt;stroke-linejoin:miter;stroke-miterlimit:4;stroke-dasharray:none;stroke-opacity:1" />
      <path
         id="path4218"
         d="M 307.02405,832.64528 194.02857,945.64078 C 151.29695,877.36184 175.36106,713.37123 293.34204,823.8767"
         style="fill:#000000;fill-opacity:0.19607843;fill-rule:evenodd;stroke:none;stroke-width:1px;stroke-linecap:butt;stroke-linejoin:miter;stroke-opacity:1" />
      <path
         id="path4148"
         d="m 113.28859,777.7559 c -11.90166,0 -22.717661,2.14242 -32.448042,6.42748 -9.730381,4.28499 -17.128713,10.58401 -22.194932,18.8969 -5.066218,8.22721 -7.599298,17.09719 -7.599298,26.60988 0,8.65568 2.050555,16.4972 6.151838,23.52461 4.18163,6.94172 10.494352,12.76928 18.938089,17.48282 6.513746,3.68506 17.892618,7.62733 34.136745,11.82663 16.24413,4.1136 26.73848,7.15595 31.48305,9.12707 7.39833,2.9995 12.70578,6.72742 15.92243,11.18386 3.21664,4.37069 4.82499,9.51269 4.82499,15.42602 0,5.82754 -1.68877,11.22665 -5.06624,16.19725 -3.29703,4.88492 -8.36332,8.74145 -15.1987,11.56956 -6.83541,2.82812 -14.7162,4.24213 -23.64241,4.24213 -10.05202,0 -19.098907,-1.84259 -27.140592,-5.52768 -8.041625,-3.77082 -13.992423,-8.65568 -17.852419,-14.6547 -3.779576,-6.08464 -6.192093,-13.84053 -7.237507,-23.26752 l -22.074248,2.0568 c 0.321766,12.59789 3.538336,23.91031 9.649969,33.93726 6.192102,9.94114 14.67598,17.39699 25.451775,22.36761 10.856197,4.97063 24.285752,7.45594 40.288652,7.45594 12.62536,0 23.96402,-2.44242 34.01611,-7.32738 10.01177,-4.91137 17.68388,-11.72438 23.0634,-20.40092 3.47506,6.08776 7.64463,11.29916 13.49792,15.38751 11.98209,8.22723 27.50246,12.34079 46.56109,12.34079 18.41537,0 33.97599,-5.35622 46.68177,-16.06876 12.7862,-10.79821 21.632,-26.43855 26.53738,-46.92079 l -23.40116,-6.29895 c -3.21662,15.85455 -9.36853,27.80974 -18.45555,35.86548 -9.08702,8.05584 -20.18452,12.08372 -33.29243,12.08372 -10.77578,0 -20.78762,-2.95669 -30.03552,-8.86995 -9.24786,-5.91328 -16.08325,-14.8261 -20.50618,-26.73844 -4.34251,-11.99797 -6.51375,-26.01002 -6.51375,-42.03589 0,-12.42656 1.84959,-24.46737 5.54876,-36.12256 3.69918,-11.74089 10.0923,-21.08218 19.17933,-28.02391 9.16744,-6.94172 20.54637,-10.41255 34.13674,-10.41255 11.82125,0 21.63205,3.12805 29.43244,9.38416 7.80039,6.2561 13.75119,16.24016 17.8524,29.95215 l 23.03956,-5.78625 c -4.74458,-17.39712 -13.14829,-30.89339 -25.21077,-40.49178 -12.0625,-9.59839 -26.93952,-14.3976 -44.63111,-14.3976 -15.60083,0 -29.91496,3.81366 -42.94239,11.44094 -8.27903,4.82252 -15.35126,11.11437 -21.22994,18.84543 -0.63952,-1.2292 -1.21068,-2.48986 -1.94204,-3.67649 -5.38792,-8.74146 -13.10789,-15.34032 -23.15992,-19.79671 -9.97168,-4.54214 -21.51143,-6.81317 -34.61929,-6.81317 z m 0.96501,21.98202 c 13.59037,0 23.84349,3.04237 30.75928,9.12708 6.99623,6.08464 11.09751,15.08323 12.30373,26.99556 l 0,35.69831 c -0.84005,-0.46204 -1.41733,-0.88663 -2.41252,-1.37545 -7.07663,-3.42798 -20.14425,-7.41311 -39.20295,-11.95519 -18.978257,-4.62784 -30.719101,-9.127 -35.222439,-13.49776 -4.583751,-4.37067 -6.875602,-9.94115 -6.875602,-16.71149 0,-7.79867 3.216637,-14.44045 9.649978,-19.92524 6.513743,-5.57047 16.847203,-8.35582 31.000523,-8.35582 z" />
    </g>
  </g>
</svg>
