<?xml version="1.0" encoding="UTF-8" standalone="no"?>
<!-- Created with Inkscape (http://www.inkscape.org/) -->

<svg
   xmlns:dc="http://purl.org/dc/elements/1.1/"
   xmlns:cc="http://creativecommons.org/ns#"
   xmlns:rdf="http://www.w3.org/1999/02/22-rdf-syntax-ns#"
   xmlns:svg="http://www.w3.org/2000/svg"
   xmlns="http://www.w3.org/2000/svg"
   xmlns:sodipodi="http://sodipodi.sourceforge.net/DTD/sodipodi-0.dtd"
   xmlns:inkscape="http://www.inkscape.org/namespaces/inkscape"
   id="svg2985"
   version="1.1"
   inkscape:version="0.48.2 r9819"
   width="1000"
   height="449.48575"
   xml:space="preserve"
   sodipodi:docname="Sur.svg"><metadata
     id="metadata2991"><rdf:RDF><cc:Work
         rdf:about=""><dc:format>image/svg+xml</dc:format><dc:type
           rdf:resource="http://purl.org/dc/dcmitype/StillImage" /><dc:title></dc:title></cc:Work></rdf:RDF></metadata><defs
     id="defs2989"><clipPath
       clipPathUnits="userSpaceOnUse"
       id="clipPath2999"><path
         d="m 0,841.945 595,0 0,-841.89 -595,0 0,841.89 z"
         id="path3001"
         inkscape:connector-curvature="0" /></clipPath><clipPath
       clipPathUnits="userSpaceOnUse"
       id="clipPath3005"><path
         d="m 0,842.04 595.2,0 L 595.2,0 0,0 0,842.04 z"
         id="path3007"
         inkscape:connector-curvature="0" /></clipPath><clipPath
       clipPathUnits="userSpaceOnUse"
       id="clipPath3129"><path
         d="m 0,841.945 595,0 0,-841.89 -595,0 0,841.89 z"
         id="path3131"
         inkscape:connector-curvature="0" /></clipPath><clipPath
       clipPathUnits="userSpaceOnUse"
       id="clipPath3135"><path
         d="m 0,842.04 595.2,0 L 595.2,0 0,0 0,842.04 z"
         id="path3137"
         inkscape:connector-curvature="0" /></clipPath><clipPath
       clipPathUnits="userSpaceOnUse"
       id="clipPath3377"><path
         inkscape:connector-curvature="0"
         d="m 741.337,520.09 83.339,0 0,58.677 -83.339,0 0,-58.677 z"
         id="path3379" /></clipPath><clipPath
       clipPathUnits="userSpaceOnUse"
       id="clipPath3858"><path
         inkscape:connector-curvature="0"
         d="m 244.46,35.513 106.356,0 0,47.747 -106.356,0 0,-47.747 z"
         id="path3860" /></clipPath><clipPath
       clipPathUnits="userSpaceOnUse"
       id="clipPath3858-4"><path
         inkscape:connector-curvature="0"
         d="m 244.46,35.513 106.356,0 0,47.747 -106.356,0 0,-47.747 z"
         id="path3860-0" /></clipPath></defs><sodipodi:namedview
     pagecolor="#ffffff"
     bordercolor="#666666"
     borderopacity="1"
     objecttolerance="10"
     gridtolerance="10"
     guidetolerance="10"
     inkscape:pageopacity="0"
     inkscape:pageshadow="2"
     inkscape:window-width="1920"
     inkscape:window-height="1028"
     id="namedview2987"
     showgrid="false"
     fit-margin-left="0.5"
     fit-margin-bottom="0.5"
     fit-margin-top="0.5"
     fit-margin-right="0.5"
     inkscape:zoom="0.89691211"
     inkscape:cx="750.27777"
     inkscape:cy="-37.958576"
     inkscape:window-x="-8"
     inkscape:window-y="-8"
     inkscape:window-maximized="1"
     inkscape:current-layer="g3121" /><g
     id="g2993"
     inkscape:groupmode="layer"
     inkscape:label="HTS-Clare-Haverhill_12pp"
     transform="matrix(1.25,0,0,-1.25,-876.10763,1673.2889)"><g
       id="g3121"
       transform="translate(455.985,791.344)"><g
         transform="matrix(7.5143856,0,0,7.5143856,-1591.6656,-78.760615)"
         id="g4196"><g
           transform="translate(275.30251,56.119904)"
           id="g3850"><path
             inkscape:connector-curvature="0"
             id="path3852"
             style="fill:#0a8137;fill-opacity:1;fill-rule:nonzero;stroke:none"
             d="m 0,0 2.221,0 1.213,-4.614 1.212,4.658 2.087,0 1.155,-4.612 1.202,4.601 2.289,0 L 8.976,-8.4 6.959,-8.4 5.689,-3.718 4.295,-8.4 2.233,-8.4 0,0 z" /></g><g
           id="g3854"><g
             clip-path="url(#clipPath3858-4)"
             id="g3856"><g
               transform="translate(295.8255,53.982895)"
               id="g3862"><path
                 inkscape:connector-curvature="0"
                 id="path3864"
                 style="fill:#0a8137;fill-opacity:1;fill-rule:nonzero;stroke:none"
                 d="m 0,0 -1.91,0 0,-6.364 1.904,0 0,3.401 c 0,0 0.099,1.587 1.81,1.29 l 0,1.769 c 0,0 -1.11,0.092 -1.813,-0.872 L 0,0" /></g><g
               transform="translate(281.40421,39.284805)"
               id="g3866"><path
                 inkscape:connector-curvature="0"
                 id="path3868"
                 style="fill:#0a8137;fill-opacity:1;fill-rule:nonzero;stroke:none"
                 d="m 0,0 1.444,0.017 c -0.699,-1.271 -2.07,-2.11 -3.613,-2.11 -2.23,0 -4.039,1.782 -4.039,4.012 0,2.231 1.819,4 4.05,4 1.53,0 2.881,-0.812 3.585,-2.067 L 0.034,3.849 c -0.558,0.6 -1.352,0.949 -2.214,0.949 -1.593,0 -2.897,-1.262 -2.897,-2.856 0,-1.593 1.304,-2.913 2.897,-2.913 0.845,0 1.624,0.391 2.18,0.971" /></g><g
               transform="translate(294.10651,37.979004)"
               id="g3870"><path
                 inkscape:connector-curvature="0"
                 id="path3872"
                 style="fill:#0a8137;fill-opacity:1;fill-rule:nonzero;stroke:none"
                 d="m 0,0 c -0.418,-0.544 -1.116,-0.741 -1.793,-0.741 -1.512,0 -2.278,1.259 -2.278,2.199 l -0.01,3.751 1.064,0 0,-3.355 c 0,-0.723 0.41,-1.542 1.224,-1.542 0.038,0 1.477,-0.252 1.712,1.394 l 0,3.503 1.099,0 0,-5.803 -1.008,0 L 0,0" /></g><g
               transform="translate(298.17,54.009201)"
               id="g3874"><path
                 inkscape:connector-curvature="0"
                 id="path3876"
                 style="fill:#0a8137;fill-opacity:1;fill-rule:nonzero;stroke:none"
                 d="M 0,0 1.938,0 2.878,-3.344 4.029,0 l 1.717,0 0.976,-3.389 1.115,3.382 1.972,0 -2.226,-6.307 -1.791,0 -1.032,3.208 -1.281,-3.219 -1.723,0 L 0,0 z" /></g><g
               transform="translate(297.3299,42.608002)"
               id="g3878"><path
                 inkscape:connector-curvature="0"
                 id="path3880"
                 style="fill:#0a8137;fill-opacity:1;fill-rule:nonzero;stroke:none"
                 d="m 0,0 c 0.417,0.544 1.117,0.741 1.792,0.741 1.513,0 2.279,-1.26 2.279,-2.199 l 0.011,-3.751 -1.066,0 0,3.354 c 0,0.723 -0.41,1.542 -1.224,1.542 -0.037,0 -1.476,0.253 -1.711,-1.393 l 0,-3.503 -1.099,0 0,5.803 1.008,0 L 0,0" /></g><g
               transform="translate(301.72881,43.173706)"
               id="g3882"><path
                 inkscape:connector-curvature="0"
                 id="path3884"
                 style="fill:#0a8137;fill-opacity:1;fill-rule:nonzero;stroke:none"
                 d="m 0,0 0.828,0 0,1.949 1.076,0 0,-1.949 0.986,0 0,-0.952 -0.986,0 0,-4.806 -1.087,0 0,4.806 L 0,-0.952 0,0 z" /></g><g
               transform="translate(304.9588,43.219101)"
               id="g3886"><path
                 inkscape:connector-curvature="0"
                 id="path3888"
                 style="fill:#0a8137;fill-opacity:1;fill-rule:nonzero;stroke:none"
                 d="M 0,0 1.202,0 2.89,-4.17 4.704,0 5.837,0 2.573,-7.706 l -1.19,0 0.941,2.062 L 0,0 z" /></g><g
               transform="translate(318.4296,56.198807)"
               id="g3890"><path
                 inkscape:connector-curvature="0"
                 id="path3892"
                 style="fill:#0a8137;fill-opacity:1;fill-rule:nonzero;stroke:none"
                 d="m 0,0 0,-8.433 1.915,0 0,2.687 1.689,-2.642 2.391,0 -2.13,3.209 2.29,3.093 -2.257,0 L 1.927,-4.794 1.927,0 0,0 z" /></g><g
               transform="translate(327.23531,47.595902)"
               id="g3894"><path
                 inkscape:connector-curvature="0"
                 id="path3896"
                 style="fill:#0a8137;fill-opacity:1;fill-rule:nonzero;stroke:none"
                 d="m 0,0 c -0.567,0 -2.782,0.405 -2.697,2.029 l 1.949,0 c 0,0 0.011,-0.476 0.386,-0.566 0.373,-0.091 0.317,-0.045 0.487,0 0.17,0.045 0.522,0.453 0.182,0.849 0,0 -0.296,0.228 -0.693,0.273 -0.396,0.045 -0.86,0.272 -1.143,0.374 0,0 -0.759,0.328 -0.941,1.144 -0.181,0.817 0.158,1.406 0.475,1.745 0.319,0.34 0.998,0.771 1.972,0.771 0.976,0 1.983,-0.294 2.29,-1.519 l 0.023,-0.385 -1.768,0 c 0,0 -0.023,0.658 -0.681,0.59 -0.53,-0.055 -0.498,-0.567 -0.498,-0.567 0,0 -0.041,-0.376 0.964,-0.635 0.963,-0.249 1.085,-0.196 1.745,-0.782 0,0 0.906,-1.076 0,-2.324 C 1.351,0.035 0,0 0,0" /></g><g
               transform="translate(319.9364,39.358902)"
               id="g3898"><path
                 inkscape:connector-curvature="0"
                 id="path3900"
                 style="fill:#0a8137;fill-opacity:1;fill-rule:nonzero;stroke:none"
                 d="m 0,0 1.444,0.017 c -0.699,-1.271 -2.07,-2.11 -3.613,-2.11 -2.231,0 -4.039,1.781 -4.039,4.012 0,2.232 1.82,4.002 4.051,4.002 1.529,0 2.879,-0.815 3.584,-2.068 L 0.034,3.849 c -0.558,0.598 -1.352,0.949 -2.215,0.949 -1.592,0 -2.896,-1.263 -2.896,-2.856 0,-1.594 1.304,-2.913 2.896,-2.913 0.846,0 1.626,0.391 2.181,0.971" /></g><g
               transform="translate(332.6386,38.051895)"
               id="g3902"><path
                 inkscape:connector-curvature="0"
                 id="path3904"
                 style="fill:#0a8137;fill-opacity:1;fill-rule:nonzero;stroke:none"
                 d="m 0,0 c -0.418,-0.543 -1.117,-0.741 -1.793,-0.741 -1.511,0 -2.277,1.261 -2.277,2.199 l -0.011,3.751 1.065,0 0,-3.354 c 0,-0.721 0.41,-1.542 1.223,-1.542 0.038,0 1.476,-0.253 1.712,1.395 l 0,3.501 1.099,0 0,-5.802 -1.009,0 L 0,0" /></g><g
               transform="translate(332.319,51.130798)"
               id="g3906"><path
                 inkscape:connector-curvature="0"
                 id="path3908"
                 style="fill:#0a8137;fill-opacity:1;fill-rule:nonzero;stroke:none"
                 d="m 0,0 0,-3.401 -1.904,0 0,8.421 1.883,0 0.017,-2.833 c 0,0 0.335,0.884 1.819,0.884 1.383,0 2.244,-1.012 2.244,-2.245 l 0,-4.215 -1.858,0 0,3.424 c 0,0 0.046,1.246 -1.043,1.246 C 0.07,1.281 -0.002,0.215 0,0" /></g><g
               transform="translate(335.845,42.615204)"
               id="g3910"><path
                 inkscape:connector-curvature="0"
                 id="path3912"
                 style="fill:#0a8137;fill-opacity:1;fill-rule:nonzero;stroke:none"
                 d="m 0,0 c 0.418,0.542 1.117,0.74 1.793,0.74 1.513,0 2.279,-1.26 2.279,-2.198 l 0.011,-3.751 -1.067,0 0,3.354 c 0,0.721 -0.41,1.542 -1.223,1.542 -0.038,0 -1.476,0.253 -1.712,-1.395 l 0,-3.501 -1.099,0 0,5.802 1.009,0 L 0,0" /></g><g
               transform="translate(342.1055,54.036697)"
               id="g3914"><path
                 inkscape:connector-curvature="0"
                 id="path3916"
                 style="fill:#0a8137;fill-opacity:1;fill-rule:nonzero;stroke:none"
                 d="m 0,0 -1.91,0 0,-6.363 1.904,0 0,3.4 c 0,0 0.098,1.587 1.81,1.292 l 0,1.769 c 0,0 -1.111,0.09 -1.814,-0.874 L 0,0" /></g><g
               transform="translate(347.0564,43.185699)"
               id="g3918"><path
                 inkscape:connector-curvature="0"
                 id="path3920"
                 style="fill:#0a8137;fill-opacity:1;fill-rule:nonzero;stroke:none"
                 d="m 0,0 0,-5.769 1.116,0 L 1.119,0.004 0,0 z" /></g><g
               transform="translate(349.18401,45.109802)"
               id="g3922"><path
                 inkscape:connector-curvature="0"
                 id="path3924"
                 style="fill:#0a8137;fill-opacity:1;fill-rule:nonzero;stroke:none"
                 d="m 0,0 0,-7.694 1.117,0 L 1.119,0.002 0,0 z" /></g><g
               transform="translate(347.0466,45.151596)"
               id="g3926"><path
                 inkscape:connector-curvature="0"
                 id="path3928"
                 style="fill:#0a8137;fill-opacity:1;fill-rule:nonzero;stroke:none"
                 d="m 0,0 -0.002,-1.126 1.118,0 0,1.134 L 0,0 z" /></g><path
               inkscape:connector-curvature="0"
               id="path3930"
               style="fill:#0a8137;fill-opacity:1;fill-rule:nonzero;stroke:none"
               d="m 310.504,56.153 -1.89,0 0,-1.313 1.89,0 0,1.313 z" /><g
               transform="translate(310.4866,47.699905)"
               id="g3932"><path
                 inkscape:connector-curvature="0"
                 id="path3934"
                 style="fill:#0a8137;fill-opacity:1;fill-rule:nonzero;stroke:none"
                 d="m 0,0 0,6.302 -1.889,0 L -1.891,0 0,0 z" /></g><path
               inkscape:connector-curvature="0"
               id="path3936"
               style="fill:#0a8137;fill-opacity:1;fill-rule:nonzero;stroke:none"
               d="m 339.241,56.1 -1.889,0 0,-1.259 1.889,0 0,1.259 z" /><path
               inkscape:connector-curvature="0"
               id="path3938"
               style="fill:#0a8137;fill-opacity:1;fill-rule:nonzero;stroke:none"
               d="m 339.224,53.949 -1.889,0 0,-6.302 1.889,0 0,6.302 z" /><g
               transform="translate(286.2851,37.214798)"
               id="g3940"><path
                 inkscape:connector-curvature="0"
                 id="path3942"
                 style="fill:#0a8137;fill-opacity:1;fill-rule:nonzero;stroke:none"
                 d="m 0,0 c -1.532,0 -3.107,1.202 -3.107,2.975 0,1.713 1.388,3.101 3.101,3.101 1.712,0 3.101,-1.388 3.101,-3.101 C 3.095,1.392 1.671,0.018 0.031,0 L 0,0 z m 0.022,1.043 c 0.999,0 1.988,0.824 1.988,1.943 0,1.119 -0.908,2.028 -2.027,2.028 -1.181,0 -2,-0.985 -2,-2.045 0,-1.047 0.959,-1.907 2.006,-1.926 l 0.033,0" /></g><g
               transform="translate(324.88721,37.214798)"
               id="g3944"><path
                 inkscape:connector-curvature="0"
                 id="path3946"
                 style="fill:#0a8137;fill-opacity:1;fill-rule:nonzero;stroke:none"
                 d="m 0,0 c -1.531,0 -3.106,1.202 -3.106,2.975 0,1.713 1.388,3.101 3.1,3.101 1.714,0 3.102,-1.388 3.102,-3.101 C 3.096,1.392 1.67,0.018 0.032,0 L 0,0 z m 0.023,1.043 c 0.998,0 1.988,0.824 1.988,1.943 0,1.119 -0.907,2.028 -2.028,2.028 -1.179,0 -2,-0.985 -2,-2.045 0,-1.047 0.96,-1.907 2.005,-1.926 l 0.035,0" /></g><g
               transform="translate(251.9297,64.853195)"
               id="g3948"><path
                 inkscape:connector-curvature="0"
                 id="path3950"
                 style="fill:#0a8137;fill-opacity:1;fill-rule:nonzero;stroke:none"
                 d="m 0,0 0,0.586 0,3.291 1.806,1.804 0,2.781 -0.987,-0.003 0,-1.218 -0.819,0 0,1.218 0,0.078 0,2.733 -0.841,0.84 -1.645,0 0.019,-7.314 0,-0.49 0.003,-0.689 -0.688,0 0,1.219 -1.135,0.005 0,-2.199 1.205,-1.205 0,-5.068 -0.467,0 0.003,0.002 0,-1.219 -0.819,0 0,1.219 -1.137,-0.002 0,-2.183 2.43,-2.429 0,-6.269 -0.477,0 -0.006,0.005 0,-1.353 -0.819,0 0,1.353 -1.59,0.007 0.005,-2.945 1.668,-1.69 0,-6.049 0.907,-0.907 3.703,0 0.906,0.907 0,10.583 1.819,1.819 0.016,2.793 -1.709,-0.002 0,-1.353 -0.819,0 0,1.353 -0.011,-0.002 -0.507,0 0.003,8.26 -0.979,0.98 0,1.339 0.928,0 0.008,-0.586 -0.331,0 0,-0.538 1.955,-1.955 1.288,0 1.208,-1.208 5.148,0 3.637,3.635 0.996,0 0.004,-0.687 -0.718,0.001 -3.635,-3.628 -0.582,-0.014 0,-2.035 0.605,-0.605 0,-3.025 1.21,-1.209 0,-1.418 1.293,1.293 0.003,0.508 0.687,0 0,-0.79 -3.796,-3.811 0,-6.801 -2.491,-2.142 0,-1.288 0.371,-0.372 5.147,0 0.365,0.365 0,6.362 3.014,3.008 0.497,0.002 0.006,-0.48 -0.622,-0.63 0,-5.664 -1.227,-1.227 0,-0.079 -0.582,0 0.005,0.849 0.814,0.813 0,3.862 -0.837,-0.823 0,-7.321 -0.167,0.149 -0.656,-0.655 -6.522,0 -1.079,1.077 0,2.667 2.488,2.041 0.009,7.034 1.823,1.825 0,1.199 -1.205,1.207 0,2.727 -0.526,0.527 0,2.12 -4.385,0 -1.125,1.125 -0.614,0 0,-4.528 3.025,0 0,-5.068 -1.815,-1.814 0,-10.589 -1.513,-1.512 -5.369,0 -1.532,1.531 0,6.051 -1.713,1.704 0,5.151 2.942,0.008 0,4.008 -2.42,2.422 0,4.461 2.438,0 -0.018,2.799 -1.229,1.228 0,4.443 1.834,0 0,7.47 3.763,0 1.758,-1.758 0,-1.873 1.683,0 0,-5.256 -1.74,-1.74 0,-1.664 4.539,-0.018 2.098,2.079 0,0.926 1.409,1.4 -0.804,0.775 0.009,0.709 -0.68,0.671 -1.286,0 -2.165,2.137 0,2.515 1.447,1.446 1.068,0 0.827,0.828 0.232,0 1.207,1.208 1.062,0 0.566,0.566 0,1.7 2.119,0 2.438,-2.439 0,-0.587 0.918,-0.916 0,-0.596 0.61,-0.609 0,-0.828 0.683,-0.683 0,-2.267 1.855,-1.816 0,-2.343 0.737,-0.738 0,-0.7 0.407,-0.405 0,-11.469 0.619,-0.619 0,-6.452 -0.56,-0.56 0,-1.842 -0.384,-0.384 0,-8.446 -1.222,-1.222 -5.439,0 -0.414,0.41 -0.014,2.637 0.583,0 0,-1.319 0.308,-0.307 4.463,0 0.312,0.312 0,8.688 0.38,0.377 0,1.813 0.597,0.599 0,4.921 -0.61,0.61 0,11.504 -0.595,0.597 0,0.615 -0.605,0.604 0,2.421 -1.588,1.588 -1.976,0 -3.462,-3.462 0.004,0.897 0,0.073 3.173,3.177 2.026,0 -0.001,1.726 -0.604,0.605 0,0.832 -0.614,0.614 0,0.607 -0.897,0.896 0,0.675 -1.744,1.746 0,-0.972 -1.446,-1.445 -1.194,0 -0.753,-0.752 -0.243,0 -1.062,-1.062 -1.035,0 -0.694,-0.695 0,-1.049 1.371,-1.36 1.193,0 1.439,-1.438 0,-0.61 1.064,-1.064 0,-1.367 0,-0.052 L 9.615,3.48 9.62,2.719 6.902,0 0,0 z" /></g><g
               transform="translate(346.20351,50.361893)"
               id="g3952"><path
                 inkscape:connector-curvature="0"
                 id="path3954"
                 style="fill:#0a8137;fill-opacity:1;fill-rule:nonzero;stroke:none"
                 d="m 0,0 -0.148,0 c 0,0 0.348,-0.966 1.358,-0.946 0.327,0.007 0.617,0.118 0.846,0.26 l 2.318,0.002 0,-0.01 C 3.855,-1.909 2.601,-2.759 1.208,-2.759 c -1.828,0 -3.36,1.488 -3.36,3.315 0,1.827 1.532,3.304 3.36,3.304 1.538,0 2.908,-1.062 3.303,-2.487 C 4.661,0.805 4.613,0.035 4.613,0.012 L 0.026,0 0,0 z m 1.19,2.182 c -0.554,0 -1.047,-0.215 -1.417,-0.871 l 0.005,0.001 0.22,0 0.028,-0.004 2.582,0 C 2.417,1.88 1.876,2.182 1.19,2.182" /></g><g
               transform="translate(343.5934,42.306702)"
               id="g3956"><path
                 inkscape:connector-curvature="0"
                 id="path3958"
                 style="fill:#0a8137;fill-opacity:1;fill-rule:nonzero;stroke:none"
                 d="m 0,0 c 0.752,0 1.408,-0.41 1.758,-1.019 l 1.181,0.005 C 2.516,0.194 1.365,1.062 0.012,1.062 c -1.714,0 -3.101,-1.39 -3.101,-3.102 0,-1.774 1.575,-2.974 3.107,-2.974 1.299,0 2.468,0.855 2.91,1.993 L 1.743,-3.016 2.928,-3.021 1.743,-3.016 C 1.379,-3.601 0.711,-3.973 0.041,-3.973 -1.02,-3.973 -2,-3.104 -2,-2.045 -2,-0.987 -1.18,0 0,0" /></g><g
               transform="translate(286.01421,50.827103)"
               id="g3960"><path
                 inkscape:connector-curvature="0"
                 id="path3962"
                 style="fill:#0a8137;fill-opacity:1;fill-rule:nonzero;stroke:none"
                 d="m 0,0 c 0,1.791 1.515,3.286 3.308,3.286 0.616,0 1.185,-0.179 1.665,-0.485 l 0.118,-0.079 -0.015,0.079 0,0.4 1.911,0 0,-6.363 -1.904,0 -0.002,0.514 0,-0.003 C 4.722,-3.018 3.894,-3.287 3.263,-3.287 1.476,-3.287 0.01,-1.82 0,-0.035 L 0,0 z m 1.928,0.011 c 0,-0.849 0.688,-1.539 1.539,-1.539 0.849,0 1.539,0.69 1.539,1.539 0,0.849 -0.69,1.538 -1.539,1.538 C 2.624,1.549 1.94,0.89 1.928,0.05 l 0,-0.039" /></g><g
               transform="translate(314.3721,52.391205)"
               id="g3964"><path
                 inkscape:connector-curvature="0"
                 id="path3966"
                 style="fill:#0a8137;fill-opacity:1;fill-rule:nonzero;stroke:none"
                 d="M 0,0 C 0.522,0 0.961,-0.22 1.218,-0.597 L 3.297,-0.6 c -0.395,1.425 -1.764,2.487 -3.302,2.487 -1.829,0 -3.361,-1.477 -3.361,-3.305 0,-1.827 1.532,-3.315 3.361,-3.315 1.51,0 2.858,1.003 3.281,2.383 l -2.088,0 C 0.941,-2.674 0.524,-2.888 0,-2.888 c -0.745,0 -1.46,0.563 -1.46,1.459 C -1.46,-0.623 -0.805,0 0,0" /></g></g></g></g></g><g
       id="g3125"><g
         id="g3127"
         clip-path="url(#clipPath3129)"><g
           id="g3133"
           clip-path="url(#clipPath3135)"><text
             transform="matrix(1,0,0,-1,514.7567,20.5706)"
             id="text3139"><tspan
               style="font-size:6px;font-variant:normal;font-weight:normal;writing-mode:lr-tb;fill:#231f20;fill-opacity:1;fill-rule:nonzero;stroke:none;font-family:' Xenogears';-inkscape-font-specification:Helvetica"
               x="0 3.336 6.6719999 10.008 12.006 16.337999 20.34 24.341999 26.34 29.676001 33.012001 36.348 39.683998 43.02"
               y="0"
               sodipodi:role="line"
               id="tspan3141">780-CYP-220212</tspan></text>
</g></g></g></g></svg>